<svg xmlns="http://www.w3.org/2000/svg" x="0px" y="0px" width="100" height="100" viewBox="0,0,256,256">
<g fill="none" fill-rule="nonzero" stroke="none" stroke-width="none" stroke-linecap="none" stroke-linejoin="none" stroke-miterlimit="10" stroke-dasharray="" stroke-dashoffset="0" font-family="none" font-weight="none" font-size="none" text-anchor="none" style="mix-blend-mode: normal"><g transform="scale(5.33333,5.33333)"><path d="M41.75,11h-12.5c-0.094,0 -0.184,0.017 -0.276,0.028c-0.128,-1.139 -1.084,-2.028 -2.257,-2.028h-12.434c-1.261,0 -2.283,1.022 -2.283,2.283v10.212c0,0.864 0.971,1.372 1.681,0.879l3.419,-2.374h9.617c0.214,0 0.416,-0.039 0.612,-0.094c0.394,0.653 1.103,1.094 1.921,1.094h9.65l3.482,2.199c0.703,0.443 1.618,-0.062 1.618,-0.892v-9.057c0,-1.243 -1.007,-2.25 -2.25,-2.25z" fill="#da297a" stroke="none" stroke-width="1" stroke-linecap="butt" stroke-linejoin="miter"></path><path d="M15,30.5c-1.933,0 -3.5,-1.567 -3.5,-3.5c0,-1.933 1.567,-3.5 3.5,-3.5c1.933,0 3.5,1.567 3.5,3.5c0,0.347 -0.051,0.683 -0.145,1" fill="none" stroke="#9698f3" stroke-width="3" stroke-linecap="round" stroke-linejoin="round"></path><path d="M33.244,23.508c1.819,0.126 3.256,1.641 3.256,3.492c0,1.933 -1.567,3.5 -3.5,3.5c-1.933,0 -3.5,-1.567 -3.5,-3.5c0,-0.271 0.031,-0.535 0.089,-0.788" fill="none" stroke="#9698f3" stroke-width="3" stroke-linecap="round" stroke-linejoin="round"></path><path d="M15,42.5c3.59,0 6.5,-1.567 6.5,-3.5v0c0,-1.933 -1.567,-3.5 -3.5,-3.5h-6c-1.933,0 -3.5,1.567 -3.5,3.5v0c0,0.871 0.59,1.667 1.567,2.279" fill="none" stroke="#9698f3" stroke-width="3" stroke-linecap="round" stroke-linejoin="round"></path><path d="M31.649,35.5h-1.649c-1.933,0 -3.5,1.567 -3.5,3.5v0c0,1.933 2.91,3.5 6.5,3.5c3.59,0 6.5,-1.567 6.5,-3.5v0c0,-1.872 -1.47,-3.401 -3.319,-3.495" fill="none" stroke="#9698f3" stroke-width="3" stroke-linecap="round" stroke-linejoin="round"></path><path d="M8.153,28.011c0.494,-0.087 0.924,0.342 0.836,0.836c-0.143,0.802 -0.492,1.957 -1.338,2.803c-0.847,0.847 -2.001,1.195 -2.803,1.338c-0.494,0.087 -0.924,-0.342 -0.836,-0.836c0.143,-0.802 0.492,-1.957 1.338,-2.803c0.846,-0.847 2.001,-1.194 2.803,-1.338z" fill="#9698f3" stroke="none" stroke-width="1" stroke-linecap="butt" stroke-linejoin="miter"></path><path d="M30.617,7.5h6.75c1.178,0 2.133,0.955 2.133,2.133v9.136c0,0.799 -0.89,1.275 -1.555,0.832l-3.245,-2.163h-9.067c-1.178,0 -2.133,-0.955 -2.133,-2.133" fill="none" stroke="#9698f3" stroke-width="3" stroke-linecap="round" stroke-linejoin="round"></path><path d="M22.367,15.438h-9.067l-3.245,2.164c-0.665,0.442 -1.555,-0.034 -1.555,-0.833v-9.136c0,-1.178 0.955,-2.133 2.133,-2.133h11.733c1.178,0 2.133,0.955 2.133,2.133v5.671c0.001,1.178 -0.954,2.134 -2.132,2.134z" fill="none" stroke="#9698f3" stroke-width="3" stroke-linecap="round" stroke-linejoin="round"></path></g></g>
</svg>