<svg xmlns="http://www.w3.org/2000/svg" x="0px" y="0px" width="100" height="100" viewBox="0,0,256,256">
<g fill="none" fill-rule="nonzero" stroke="none" stroke-width="none" stroke-linecap="none" stroke-linejoin="miter" stroke-miterlimit="10" stroke-dasharray="" stroke-dashoffset="0" font-family="none" font-weight="none" font-size="none" text-anchor="none" style="mix-blend-mode: normal"><g transform="scale(5.33333,5.33333)"><path d="M31.086,35.086c0.781,0.781 0.781,2.047 0,2.828l-2.753,2.753c-3.59,3.59 -9.41,3.59 -13,0v0c-3.59,-3.59 -3.59,-9.41 0,-13l2.753,-2.753c0.781,-0.781 2.047,-0.781 2.828,0z" fill="#da297a" stroke="none" stroke-width="1" stroke-linecap="butt"></path><path d="M24.914,20.914c-0.781,-0.781 -0.781,-2.047 0,-2.828l2.753,-2.753c3.59,-3.59 9.41,-3.59 13,0v0c3.59,3.59 3.59,9.41 0,13l-2.753,2.753c-0.781,0.781 -2.047,0.781 -2.828,0z" fill="#da297a" stroke="none" stroke-width="1" stroke-linecap="butt"></path><path d="M36.667,11.333l5.833,-5.833" fill="none" stroke="#9698f3" stroke-width="3" stroke-linecap="round"></path><path d="M5.5,42.5l5.833,-5.833" fill="none" stroke="#9698f3" stroke-width="3" stroke-linecap="round"></path><path d="M24.023,36.963c-3.608,3.291 -9.201,3.192 -12.69,-0.296v0c-3.59,-3.59 -3.59,-9.41 0,-13l4.167,-4.167" fill="none" stroke="#9698f3" stroke-width="3" stroke-linecap="round"></path><path d="M28.951,8.721c2.739,-0.364 5.611,0.507 7.716,2.612v0c3.59,3.59 3.59,9.41 0,13l-4.167,4.167" fill="none" stroke="#9698f3" stroke-width="3" stroke-linecap="round"></path><path d="M19.5,15.5l4.167,-4.167" fill="none" stroke="#9698f3" stroke-width="3" stroke-linecap="round"></path><path d="M17.5,13.5l17,17" fill="none" stroke="#9698f3" stroke-width="3" stroke-linecap="round"></path><path d="M13.5,17.5l17,17" fill="none" stroke="#9698f3" stroke-width="3" stroke-linecap="round"></path></g></g>
</svg>