<svg xmlns="http://www.w3.org/2000/svg" x="0px" y="0px" width="100" height="100" viewBox="0,0,256,256">
<g fill="none" fill-rule="nonzero" stroke="none" stroke-width="none" stroke-linecap="none" stroke-linejoin="none" stroke-miterlimit="none" stroke-dasharray="" stroke-dashoffset="0" font-family="none" font-weight="none" font-size="none" text-anchor="none" style="mix-blend-mode: normal"><g transform="scale(5.33333,5.33333)"><circle cx="22" cy="15.73" r="8.73" fill="#da297a" stroke="none" stroke-width="1" stroke-linecap="butt" stroke-linejoin="miter" stroke-miterlimit="10"></circle><path d="M36.5,36c0,12 -29,12 -29,0v0c0,-2.209 1.791,-4 4,-4h21.001c2.209,0 4,1.791 3.999,4v0z" fill="#da297a" stroke="none" stroke-width="1" stroke-linecap="butt" stroke-linejoin="miter" stroke-miterlimit="10"></path><path d="M10.09,15.117c-0.381,-0.965 -0.59,-2.016 -0.59,-3.117c0,-4.694 3.806,-8.5 8.5,-8.5" fill="none" stroke="#9698f3" stroke-width="3" stroke-linecap="round" stroke-linejoin="round" stroke-miterlimit="5"></path><path d="M25.048,7.248c0.917,1.356 1.452,2.992 1.452,4.752c0,4.694 -3.806,8.5 -8.5,8.5c-0.944,0 -1.853,-0.154 -2.701,-0.438" fill="none" stroke="#9698f3" stroke-width="3" stroke-linecap="round" stroke-linejoin="round" stroke-miterlimit="5"></path><path d="M20.819,40.347c-8.056,0.884 -17.319,-2.065 -17.319,-8.847v0c0,-2.209 1.791,-4 4,-4h15.415" fill="none" stroke="#9698f3" stroke-width="3" stroke-linecap="round" stroke-linejoin="round" stroke-miterlimit="10"></path><path d="M37.5,39.5l7,7" fill="none" stroke="#9698f3" stroke-width="3" stroke-linecap="round" stroke-linejoin="round" stroke-miterlimit="10"></path><path d="M25.5,34.5c0,-3.9 3.1,-7 7,-7c3.9,0 7,3.1 7,7c0,3.9 -3.1,7 -7,7c-2,0 -3.8,-0.9 -5.1,-2.2" fill="none" stroke="#9698f3" stroke-width="3" stroke-linecap="round" stroke-linejoin="round" stroke-miterlimit="10"></path></g></g>
</svg>