<svg xmlns="http://www.w3.org/2000/svg" x="0px" y="0px" width="100" height="100" viewBox="0,0,256,256">
<g fill="none" fill-rule="nonzero" stroke="none" stroke-width="none" stroke-linecap="none" stroke-linejoin="none" stroke-miterlimit="10" stroke-dasharray="" stroke-dashoffset="0" font-family="none" font-weight="none" font-size="none" text-anchor="none" style="mix-blend-mode: normal"><g transform="scale(5.33333,5.33333)"><path d="M28,9.5c-10.2,0 -18.5,8.3 -18.5,18.5c0,3.3 0.9,6.3 2.3,9l-2.3,8.2c-0.2,0.8 0.5,1.4 1.2,1.2l8.2,-2.3c2.7,1.5 5.7,2.3 9,2.3c10.2,0 18.5,-8.3 18.5,-18.5c0,-10.2 -8.2,-18.4 -18.4,-18.4z" fill="#da297a" stroke="none" stroke-width="1" stroke-linecap="butt" stroke-linejoin="miter"></path><path d="M39.6,33.9c1.8,-2.9 2.9,-6.3 2.9,-9.9c0,-10.2 -8.3,-18.5 -18.5,-18.5c-3.8,0 -7.4,1.2 -10.4,3.2" fill="none" stroke="#9698f3" stroke-width="3" stroke-linecap="round" stroke-linejoin="round"></path><path d="M7.4,15.9c-1.2,2.5 -1.9,5.2 -1.9,8.1c0,3.3 0.9,6.3 2.3,9l-2.3,8.2c-0.2,0.8 0.5,1.5 1.3,1.3l8.2,-2.3c2.7,1.5 5.7,2.3 9,2.3c3.8,0 7.3,-1.1 10.2,-3.1" fill="none" stroke="#9698f3" stroke-width="3" stroke-linecap="round" stroke-linejoin="round"></path><path d="M24.5,30.5h-7c-1.7,0 -3,-1.3 -3,-3v-7c0,-1.7 1.3,-3 3,-3h7c1.7,0 3,1.3 3,3v7c0,1.7 -1.3,3 -3,3z" fill="none" stroke="#9698f3" stroke-width="3" stroke-linecap="butt" stroke-linejoin="round"></path><path d="M27.5,26.5l6,3v-11l-6,3" fill="none" stroke="#9698f3" stroke-width="3" stroke-linecap="butt" stroke-linejoin="round"></path></g></g>
</svg>