<svg xmlns="http://www.w3.org/2000/svg" xmlns:xlink="http://www.w3.org/1999/xlink" viewBox="0 0 48 48" width="100px" height="100px">
  <defs>
    <radialGradient id="Безымянный_градиент_15" data-name="Безымянный градиент 15" cx="-1.74" cy="35.044" r="51.5" gradientTransform="translate(27.34 -6.617) rotate(45)" gradientUnits="userSpaceOnUse">
      <stop offset="0" stop-color="#934a0c"/>
      <stop offset="0.106" stop-color="#ff7e00"/>
      <stop offset="0.186" stop-color="#ffeb00"/>
      <stop offset="0.234" stop-color="#ffef45"/>
      <stop offset="0.284" stop-color="#fff287"/>
      <stop offset="0.298" stop-color="#fff27e"/>
      <stop offset="0.322" stop-color="#fff065"/>
      <stop offset="0.351" stop-color="#ffee3c"/>
      <stop offset="0.386" stop-color="#ffeb04"/>
      <stop offset="0.388" stop-color="#ffeb00"/>
      <stop offset="0.545" stop-color="#ff7e00"/>
      <stop offset="0.93" stop-color="#6d3913"/>
    </radialGradient>
    <radialGradient id="Безымянный_градиент_140" data-name="Безымянный градиент 140" cx="4.832" cy="21.019" r="21.053" gradientTransform="matrix(0, 0.979, -1, 0, 50.976, 8.66)" gradientUnits="userSpaceOnUse">
      <stop offset="0" stop-color="#993712"/>
      <stop offset="1" stop-color="#fc520e"/>
    </radialGradient>
    <linearGradient id="Безымянный_градиент_104" data-name="Безымянный градиент 104" x1="11.814" y1="31.711" x2="27.589" y2="27.705" gradientUnits="userSpaceOnUse">
      <stop offset="0" stop-color="#ffef56"/>
      <stop offset="1" stop-color="#fc6115"/>
    </linearGradient>
    <linearGradient id="Безымянный_градиент_169" data-name="Безымянный градиент 169" x1="2.335" y1="-41.796" x2="15.09" y2="-41.401" gradientTransform="matrix(-0.972, -0.234, -0.234, 0.972, 30.312, 50.692)" gradientUnits="userSpaceOnUse">
      <stop offset="0" stop-color="#8e0000"/>
      <stop offset="0.293" stop-color="red"/>
      <stop offset="0.428" stop-color="#ea0000"/>
      <stop offset="0.708" stop-color="#b40000"/>
      <stop offset="1" stop-color="#760000"/>
    </linearGradient>
    <linearGradient id="Безымянный_градиент_169-2" x1="139.216" y1="-36.028" x2="147.803" y2="-35.762" gradientTransform="translate(-115.599 15.626) rotate(13.513)" xlink:href="#Безымянный_градиент_169"/>
    <linearGradient id="Безымянный_градиент_169-3" x1="6.267" y1="-30.856" x2="10.782" y2="-30.716" xlink:href="#Безымянный_градиент_169"/>
    <linearGradient id="Безымянный_градиент_178" data-name="Безымянный градиент 178" x1="135.923" y1="-20.431" x2="143.913" y2="-23.872" gradientTransform="translate(-115.599 15.626) rotate(13.513)" gradientUnits="userSpaceOnUse">
      <stop offset="0.293" stop-color="red"/>
      <stop offset="0.428" stop-color="#ea0000"/>
      <stop offset="0.708" stop-color="#b40000"/>
      <stop offset="1" stop-color="#760000"/>
    </linearGradient>
    <linearGradient id="Безымянный_градиент_288" data-name="Безымянный градиент 288" x1="47.046" y1="51.415" x2="62.504" y2="66.404" gradientTransform="matrix(0.006, -1, -1, -0.006, 90.503, 94.127)" gradientUnits="userSpaceOnUse">
      <stop offset="0.188" stop-color="#1e380b"/>
      <stop offset="0.598" stop-color="#97ca00"/>
      <stop offset="0.648" stop-color="#8fc001"/>
      <stop offset="0.733" stop-color="#78a504"/>
      <stop offset="0.843" stop-color="#537908"/>
      <stop offset="0.927" stop-color="#33530c"/>
    </linearGradient>
    <linearGradient id="Безымянный_градиент_288-2" x1="94.46" y1="34.924" x2="106.396" y2="33.9" gradientTransform="translate(-91.413 4.449) rotate(-15.315)" xlink:href="#Безымянный_градиент_288"/>
    <linearGradient id="Безымянный_градиент_288-3" x1="91.185" y1="37.135" x2="103.582" y2="41.342" gradientTransform="translate(-91.413 4.449) rotate(-15.315)" xlink:href="#Безымянный_градиент_288"/>
    <linearGradient id="Безымянный_градиент_288-4" x1="95.882" y1="48.149" x2="106.131" y2="44.166" gradientTransform="translate(-91.413 4.449) rotate(-15.315)" xlink:href="#Безымянный_градиент_288"/>
    <linearGradient id="Безымянный_градиент_288-5" x1="22.063" y1="22.179" x2="27.074" y2="24.585" gradientTransform="matrix(1, 0, 0, 1, 0, 0)" xlink:href="#Безымянный_градиент_288"/>
    <linearGradient id="Безымянный_градиент_288-6" x1="20.394" y1="18.385" x2="24.251" y2="17.89" gradientTransform="matrix(1, 0, 0, 1, 0, 0)" xlink:href="#Безымянный_градиент_288"/>
    <linearGradient id="Безымянный_градиент_288-7" x1="36.693" y1="6.485" x2="39.924" y2="5.694" gradientTransform="matrix(1, 0, 0, 1, 0, 0)" xlink:href="#Безымянный_градиент_288"/>
    <linearGradient id="Безымянный_градиент_288-8" x1="152.411" y1="35.629" x2="156.268" y2="35.135" gradientTransform="matrix(-0.927, -0.374, -0.374, 0.927, 165.77, 32.465)" xlink:href="#Безымянный_градиент_288"/>
    <linearGradient id="Безымянный_градиент_288-9" x1="32.108" y1="30.177" x2="35.338" y2="29.386" gradientTransform="matrix(1, 0, 0, 1, 0, 0)" xlink:href="#Безымянный_градиент_288"/>
    <linearGradient id="Безымянный_градиент_288-10" x1="39.279" y1="15.434" x2="42.906" y2="16.852" gradientTransform="matrix(1, 0, 0, 1, 0, 0)" xlink:href="#Безымянный_градиент_288"/>
  </defs>
  <title>party popper</title>
  <g>
    <path d="M29.231,37.428c-1.536.746-3.323,1.629-5.218,2.5-1.133.531-2.318,1.055-3.5,1.536-.8.345-1.614.653-2.411.933-.754.266-1.471.538-2.16.811-1.192.459-2.3.919-3.387,1.335a30.145,30.145,0,0,1-3.8,1.22,3.057,3.057,0,0,1-3.438-3.452c.295-1.2.668-2.5,1.1-3.883l.008-.007c.351-1.184.753-2.4,1.169-3.61.33-.976.682-1.944,1.027-2.892.222-.595.437-1.184.667-1.758.488-1.263.99-2.469,1.493-3.631.782-1.787,1.579-3.459,2.368-5.01Q21.193,29.47,29.231,37.428Z" fill="url(#Безымянный_градиент_15)"/>
    <ellipse cx="21.352" cy="29.29" rx="3.814" ry="11.067" transform="translate(-14.458 23.677) rotate(-45)" fill="url(#Безымянный_градиент_140)"/>
    <path d="M27.879,37.812c-2.211,0-5.895-2.142-9.4-5.648-4.487-4.487-6.74-9.264-5.128-10.875.8-.8,2.393-.683,4.485.336a25.2,25.2,0,0,1,6.391,4.792c4.486,4.487,6.739,9.264,5.128,10.875h0A2.007,2.007,0,0,1,27.879,37.812ZM14.833,21.262a1.547,1.547,0,0,0-1.13.38c-1.217,1.217.554,5.593,5.128,10.169S27.783,38.157,29,36.939s-.554-5.594-5.128-10.169a24.712,24.712,0,0,0-6.256-4.695A6.791,6.791,0,0,0,14.833,21.262Z" fill="url(#Безымянный_градиент_104)"/>
    <g>
      <polygon points="39.997 19.997 40.139 22.505 42.286 23.809 39.945 24.72 39.368 27.164 37.778 25.219 35.275 25.425 36.634 23.313 35.664 20.996 38.093 21.635 39.997 19.997" fill="#ff7e00"/>
      <polygon points="39.981 20.035 40.121 22.516 42.245 23.806 39.929 24.707 39.358 27.125 37.786 25.201 35.31 25.405 36.654 23.315 35.695 21.023 38.097 21.656 39.981 20.035" fill="#ff8000"/>
      <polygon points="39.964 20.074 40.104 22.527 42.204 23.803 39.913 24.694 39.349 27.085 37.794 25.182 35.345 25.384 36.674 23.318 35.725 21.051 38.102 21.676 39.964 20.074" fill="#ff8100"/>
      <polygon points="39.948 20.112 40.086 22.538 42.163 23.8 39.898 24.681 39.339 27.046 37.802 25.164 35.38 25.364 36.694 23.32 35.756 21.078 38.106 21.697 39.948 20.112" fill="#ff8300"/>
      <polygon points="39.932 20.15 40.068 22.549 42.122 23.797 39.882 24.668 39.33 27.006 37.81 25.146 35.415 25.343 36.715 23.322 35.787 21.106 38.111 21.717 39.932 20.15" fill="#ff8400"/>
      <polygon points="39.916 20.188 40.05 22.56 42.081 23.794 39.866 24.655 39.32 26.967 37.817 25.127 35.45 25.322 36.735 23.324 35.818 21.133 38.115 21.738 39.916 20.188" fill="#ff8700"/>
      <polygon points="39.899 20.226 40.033 22.571 42.04 23.791 39.851 24.642 39.311 26.928 37.825 25.109 35.485 25.302 36.755 23.327 35.848 21.16 38.119 21.758 39.899 20.226" fill="#f80"/>
      <polygon points="39.883 20.265 40.015 22.582 41.999 23.788 39.835 24.629 39.302 26.888 37.833 25.091 35.519 25.281 36.775 23.329 35.879 21.188 38.124 21.779 39.883 20.265" fill="#ff8a00"/>
      <polygon points="39.867 20.303 39.997 22.593 41.957 23.785 39.819 24.616 39.292 26.849 37.841 25.072 35.554 25.261 36.795 23.331 35.91 21.215 38.128 21.799 39.867 20.303" fill="#ff8c00"/>
      <polygon points="39.851 20.341 39.979 22.604 41.916 23.782 39.804 24.603 39.283 26.809 37.849 25.054 35.589 25.24 36.816 23.334 35.94 21.243 38.132 21.82 39.851 20.341" fill="#ff8e00"/>
      <polygon points="39.834 20.379 39.961 22.615 41.875 23.778 39.788 24.59 39.273 26.77 37.856 25.036 35.624 25.22 36.836 23.336 35.971 21.27 38.137 21.84 39.834 20.379" fill="#ff9000"/>
      <polygon points="39.818 20.418 39.944 22.626 41.834 23.775 39.772 24.577 39.264 26.73 37.864 25.017 35.659 25.199 36.856 23.338 36.002 21.297 38.141 21.861 39.818 20.418" fill="#ff9100"/>
      <polygon points="39.802 20.456 39.926 22.638 41.793 23.772 39.757 24.564 39.254 26.691 37.872 24.999 35.694 25.178 36.876 23.341 36.032 21.325 38.146 21.881 39.802 20.456" fill="#ff9300"/>
      <polygon points="39.786 20.494 39.908 22.649 41.752 23.769 39.741 24.551 39.245 26.652 37.88 24.98 35.729 25.158 36.896 23.343 36.063 21.352 38.15 21.902 39.786 20.494" fill="#ff9500"/>
      <polygon points="39.77 20.532 39.89 22.66 41.711 23.766 39.725 24.538 39.236 26.612 37.887 24.962 35.764 25.137 36.917 23.345 36.094 21.38 38.154 21.922 39.77 20.532" fill="#ff9700"/>
      <polygon points="39.753 20.571 39.873 22.671 41.67 23.763 39.71 24.526 39.226 26.573 37.895 24.944 35.799 25.117 36.937 23.347 36.125 21.407 38.159 21.943 39.753 20.571" fill="#f90"/>
      <polygon points="39.737 20.609 39.855 22.682 41.629 23.76 39.694 24.513 39.217 26.533 37.903 24.925 35.834 25.096 36.957 23.35 36.155 21.434 38.163 21.963 39.737 20.609" fill="#ff9b00"/>
      <polygon points="39.721 20.647 39.837 22.693 41.588 23.757 39.678 24.5 39.207 26.494 37.911 24.907 35.869 25.075 36.977 23.352 36.186 21.462 38.168 21.984 39.721 20.647" fill="#ff9d00"/>
      <polygon points="39.705 20.685 39.819 22.704 41.547 23.754 39.663 24.487 39.198 26.455 37.919 24.889 35.904 25.055 36.997 23.354 36.217 21.489 38.172 22.004 39.705 20.685" fill="#ff9e00"/>
      <polygon points="39.688 20.723 39.801 22.715 41.506 23.751 39.647 24.474 39.189 26.415 37.926 24.87 35.938 25.034 37.018 23.357 36.247 21.517 38.176 22.025 39.688 20.723" fill="#ffa000"/>
      <polygon points="39.672 20.762 39.784 22.726 41.465 23.748 39.631 24.461 39.179 26.376 37.934 24.852 35.973 25.014 37.038 23.359 36.278 21.544 38.181 22.045 39.672 20.762" fill="#ffa200"/>
      <polygon points="39.656 20.8 39.766 22.737 41.424 23.745 39.616 24.448 39.17 26.336 37.942 24.834 36.008 24.993 37.058 23.361 36.309 21.571 38.185 22.066 39.656 20.8" fill="#ffa400"/>
      <polygon points="39.64 20.838 39.748 22.748 41.383 23.742 39.6 24.435 39.16 26.297 37.95 24.815 36.043 24.973 37.078 23.364 36.339 21.599 38.189 22.086 39.64 20.838" fill="#ffa600"/>
      <polygon points="39.623 20.876 39.73 22.759 41.342 23.739 39.584 24.422 39.151 26.257 37.958 24.797 36.078 24.952 37.098 23.366 36.37 21.626 38.194 22.106 39.623 20.876" fill="#ffa800"/>
      <polygon points="39.607 20.915 39.712 22.77 41.301 23.735 39.569 24.409 39.141 26.218 37.965 24.779 36.113 24.931 37.119 23.368 36.401 21.654 38.198 22.127 39.607 20.915" fill="#fa0"/>
      <polygon points="39.591 20.953 39.695 22.781 41.26 23.732 39.553 24.396 39.132 26.179 37.973 24.76 36.148 24.911 37.139 23.371 36.432 21.681 38.203 22.147 39.591 20.953" fill="#ffab00"/>
      <polygon points="39.575 20.991 39.677 22.792 41.219 23.729 39.537 24.383 39.123 26.139 37.981 24.742 36.183 24.89 37.159 23.373 36.462 21.709 38.207 22.168 39.575 20.991" fill="#ffae00"/>
      <polygon points="39.558 21.029 39.659 22.803 41.178 23.726 39.522 24.37 39.113 26.1 37.989 24.724 36.218 24.87 37.179 23.375 36.493 21.736 38.211 22.188 39.558 21.029" fill="#ffaf00"/>
      <polygon points="39.542 21.067 39.641 22.814 41.137 23.723 39.506 24.357 39.104 26.06 37.997 24.705 36.253 24.849 37.199 23.377 36.524 21.763 38.216 22.209 39.542 21.067" fill="#ffb100"/>
      <polygon points="39.526 21.106 39.624 22.826 41.096 23.72 39.49 24.344 39.094 26.021 38.004 24.687 36.288 24.829 37.219 23.38 36.554 21.791 38.22 22.229 39.526 21.106" fill="#ffb400"/>
      <polygon points="39.51 21.144 39.606 22.837 41.055 23.717 39.474 24.332 39.085 25.982 38.012 24.669 36.322 24.808 37.24 23.382 36.585 21.818 38.225 22.25 39.51 21.144" fill="#ffb500"/>
      <polygon points="39.493 21.182 39.588 22.848 41.014 23.714 39.459 24.319 39.075 25.942 38.02 24.65 36.357 24.787 37.26 23.384 36.616 21.846 38.229 22.27 39.493 21.182" fill="#ffb700"/>
      <polygon points="39.477 21.22 39.57 22.859 40.973 23.711 39.443 24.306 39.066 25.903 38.028 24.632 36.392 24.767 37.28 23.387 36.646 21.873 38.233 22.291 39.477 21.22" fill="#ffb900"/>
      <polygon points="39.461 21.259 39.552 22.87 40.932 23.708 39.427 24.293 39.057 25.863 38.036 24.614 36.427 24.746 37.3 23.389 36.677 21.9 38.238 22.311 39.461 21.259" fill="#fb0"/>
      <polygon points="39.445 21.297 39.535 22.881 40.89 23.705 39.412 24.28 39.047 25.824 38.043 24.595 36.462 24.726 37.32 23.391 36.708 21.928 38.242 22.332 39.445 21.297" fill="#ffbc00"/>
      <polygon points="39.428 21.335 39.517 22.892 40.849 23.702 39.396 24.267 39.038 25.784 38.051 24.577 36.497 24.705 37.341 23.394 36.739 21.955 38.246 22.352 39.428 21.335" fill="#ffbf00"/>
      <polygon points="39.412 21.373 39.499 22.903 40.808 23.699 39.38 24.254 39.028 25.745 38.059 24.559 36.532 24.684 37.361 23.396 36.769 21.983 38.251 22.373 39.412 21.373" fill="#ffc000"/>
      <polygon points="39.396 21.412 39.481 22.914 40.767 23.696 39.365 24.241 39.019 25.706 38.067 24.54 36.567 24.664 37.381 23.398 36.8 22.01 38.255 22.393 39.396 21.412" fill="#ffc200"/>
      <polygon points="39.38 21.45 39.463 22.925 40.726 23.692 39.349 24.228 39.009 25.666 38.075 24.522 36.602 24.643 37.401 23.4 36.831 22.037 38.26 22.414 39.38 21.45" fill="#ffc500"/>
      <polygon points="39.363 21.488 39.446 22.936 40.685 23.689 39.333 24.215 39 25.627 38.082 24.504 36.637 24.623 37.421 23.403 36.861 22.065 38.264 22.434 39.363 21.488" fill="#ffc600"/>
      <polygon points="39.347 21.526 39.428 22.947 40.644 23.686 39.318 24.202 38.991 25.587 38.09 24.485 36.672 24.602 37.442 23.405 36.892 22.092 38.268 22.455 39.347 21.526" fill="#ffc800"/>
      <polygon points="39.331 21.564 39.41 22.958 40.603 23.683 39.302 24.189 38.981 25.548 38.098 24.467 36.707 24.582 37.462 23.407 36.923 22.12 38.273 22.475 39.331 21.564" fill="#ffca00"/>
      <polygon points="39.315 21.603 39.392 22.969 40.562 23.68 39.286 24.176 38.972 25.509 38.106 24.448 36.741 24.561 37.482 23.41 36.953 22.147 38.277 22.496 39.315 21.603" fill="#fc0"/>
      <polygon points="39.299 21.641 39.375 22.98 40.521 23.677 39.271 24.163 38.962 25.469 38.113 24.43 36.776 24.54 37.502 23.412 36.984 22.174 38.282 22.516 39.299 21.641" fill="#ffcd00"/>
      <polygon points="39.282 21.679 39.357 22.991 40.48 23.674 39.255 24.15 38.953 25.43 38.121 24.412 36.811 24.52 37.522 23.414 37.015 22.202 38.286 22.537 39.282 21.679" fill="#ffd000"/>
      <polygon points="39.266 21.717 39.339 23.003 40.439 23.671 39.239 24.138 38.944 25.39 38.129 24.393 36.846 24.499 37.543 23.417 37.046 22.229 38.29 22.557 39.266 21.717" fill="#ffd200"/>
      <polygon points="39.25 21.756 39.321 23.014 40.398 23.668 39.224 24.125 38.934 25.351 38.137 24.375 36.881 24.479 37.563 23.419 37.076 22.257 38.295 22.577 39.25 21.756" fill="#ffd300"/>
      <polygon points="39.234 21.794 39.303 23.025 40.357 23.665 39.208 24.112 38.925 25.311 38.145 24.357 36.916 24.458 37.583 23.421 37.107 22.284 38.299 22.598 39.234 21.794" fill="#ffd600"/>
      <polygon points="39.217 21.832 39.286 23.036 40.316 23.662 39.192 24.099 38.915 25.272 38.152 24.338 36.951 24.437 37.603 23.424 37.138 22.311 38.303 22.618 39.217 21.832" fill="gold"/>
      <polygon points="39.201 21.87 39.268 23.047 40.275 23.659 39.177 24.086 38.906 25.233 38.16 24.32 36.986 24.417 37.623 23.426 37.168 22.339 38.308 22.639 39.201 21.87" fill="#ffda00"/>
      <polygon points="39.185 21.908 39.25 23.058 40.234 23.656 39.161 24.073 38.896 25.193 38.168 24.302 37.021 24.396 37.644 23.428 37.199 22.366 38.312 22.659 39.185 21.908" fill="#ffdb00"/>
      <polygon points="39.169 21.947 39.232 23.069 40.193 23.653 39.145 24.06 38.887 25.154 38.176 24.283 37.056 24.376 37.664 23.43 37.23 22.394 38.317 22.68 39.169 21.947" fill="#fd0"/>
      <polygon points="39.152 21.985 39.215 23.08 40.152 23.649 39.13 24.047 38.878 25.114 38.184 24.265 37.091 24.355 37.684 23.433 37.26 22.421 38.321 22.7 39.152 21.985" fill="#ffe000"/>
      <polygon points="39.136 22.023 39.197 23.091 40.111 23.646 39.114 24.034 38.868 25.075 38.191 24.247 37.126 24.335 37.704 23.435 37.291 22.448 38.325 22.721 39.136 22.023" fill="#ffe100"/>
      <polygon points="39.12 22.061 39.179 23.102 40.07 23.643 39.098 24.021 38.859 25.036 38.199 24.228 37.16 24.314 37.724 23.437 37.322 22.476 38.33 22.741 39.12 22.061" fill="#ffe400"/>
      <polygon points="39.104 22.1 39.161 23.113 40.029 23.64 39.083 24.008 38.849 24.996 38.207 24.21 37.195 24.293 37.744 23.44 37.353 22.503 38.334 22.762 39.104 22.1" fill="#ffe500"/>
      <polygon points="39.087 22.138 39.143 23.124 39.988 23.637 39.067 23.995 38.84 24.957 38.215 24.192 37.23 24.273 37.765 23.442 37.383 22.531 38.339 22.782 39.087 22.138" fill="#ffe700"/>
      <polygon points="39.071 22.176 39.126 23.135 39.947 23.634 39.051 23.982 38.83 24.917 38.223 24.173 37.265 24.252 37.785 23.444 37.414 22.558 38.343 22.803 39.071 22.176" fill="#ffe900"/>
      <polygon points="39.055 22.214 39.108 23.146 39.906 23.631 39.036 23.969 38.821 24.878 38.23 24.155 37.3 24.232 37.805 23.447 37.445 22.586 38.347 22.823 39.055 22.214" fill="#ffeb00"/>
    </g>
    <g>
      <polygon points="5.859 17.901 7.3 17.11 7.466 15.474 8.663 16.6 10.27 16.252 9.569 17.739 10.397 19.159 8.766 18.952 7.671 20.179 7.364 18.564 5.859 17.901" fill="#ff7e00"/>
      <polygon points="5.9 17.899 7.318 17.121 7.48 15.511 8.659 16.619 10.239 16.277 9.55 17.74 10.364 19.137 8.76 18.934 7.682 20.14 7.38 18.551 5.9 17.899" fill="#ff8000"/>
      <polygon points="5.94 17.897 7.335 17.132 7.495 15.549 8.654 16.639 10.209 16.302 9.53 17.741 10.331 19.115 8.753 18.915 7.693 20.102 7.396 18.539 5.94 17.897" fill="#ff8300"/>
      <polygon points="5.98 17.896 7.352 17.143 7.509 15.586 8.649 16.658 10.178 16.326 9.511 17.742 10.299 19.093 8.747 18.896 7.705 20.063 7.412 18.526 5.98 17.896" fill="#ff8500"/>
      <polygon points="6.021 17.894 7.369 17.154 7.524 15.623 8.644 16.677 10.147 16.351 9.492 17.742 10.266 19.071 8.74 18.878 7.716 20.025 7.428 18.514 6.021 17.894" fill="#f80"/>
      <polygon points="6.061 17.892 7.386 17.165 7.538 15.661 8.639 16.696 10.117 16.376 9.472 17.743 10.233 19.049 8.734 18.859 7.727 19.986 7.445 18.501 6.061 17.892" fill="#ff8b00"/>
      <polygon points="6.102 17.89 7.403 17.176 7.553 15.698 8.635 16.715 10.086 16.401 9.453 17.744 10.201 19.027 8.727 18.84 7.738 19.948 7.461 18.489 6.102 17.89" fill="#ff8e00"/>
      <polygon points="6.142 17.889 7.421 17.187 7.567 15.735 8.63 16.735 10.055 16.426 9.433 17.745 10.168 19.005 8.721 18.821 7.749 19.909 7.477 18.476 6.142 17.889" fill="#ff9000"/>
      <polygon points="6.182 17.887 7.438 17.198 7.582 15.773 8.625 16.754 10.025 16.45 9.414 17.746 10.135 18.983 8.714 18.803 7.761 19.871 7.493 18.464 6.182 17.887" fill="#ff9300"/>
      <polygon points="6.223 17.885 7.455 17.209 7.596 15.81 8.62 16.773 9.994 16.475 9.395 17.747 10.102 18.961 8.708 18.784 7.772 19.832 7.509 18.452 6.223 17.885" fill="#ff9600"/>
      <polygon points="6.263 17.883 7.472 17.22 7.611 15.848 8.615 16.792 9.963 16.5 9.375 17.747 10.07 18.939 8.702 18.765 7.783 19.794 7.525 18.439 6.263 17.883" fill="#ff9800"/>
      <polygon points="6.304 17.882 7.489 17.231 7.625 15.885 8.611 16.811 9.933 16.525 9.356 17.748 10.037 18.917 8.695 18.747 7.794 19.756 7.541 18.427 6.304 17.882" fill="#ff9c00"/>
      <polygon points="6.344 17.88 7.506 17.242 7.64 15.922 8.606 16.831 9.902 16.55 9.337 17.749 10.004 18.895 8.689 18.728 7.805 19.717 7.558 18.414 6.344 17.88" fill="#ff9e00"/>
      <polygon points="6.384 17.878 7.524 17.253 7.654 15.96 8.601 16.85 9.871 16.574 9.317 17.75 9.972 18.873 8.682 18.709 7.817 19.679 7.574 18.402 6.384 17.878" fill="#ffa000"/>
      <polygon points="6.425 17.876 7.541 17.264 7.669 15.997 8.596 16.869 9.841 16.599 9.298 17.751 9.939 18.851 8.676 18.691 7.828 19.64 7.59 18.389 6.425 17.876" fill="#ffa400"/>
      <polygon points="6.465 17.875 7.558 17.275 7.683 16.034 8.592 16.888 9.81 16.624 9.278 17.752 9.906 18.829 8.669 18.672 7.839 19.602 7.606 18.377 6.465 17.875" fill="#ffa600"/>
      <polygon points="6.506 17.873 7.575 17.286 7.698 16.072 8.587 16.907 9.779 16.649 9.259 17.753 9.873 18.807 8.663 18.653 7.85 19.563 7.622 18.365 6.506 17.873" fill="#ffa900"/>
      <polygon points="6.546 17.871 7.592 17.297 7.712 16.109 8.582 16.927 9.749 16.674 9.24 17.753 9.841 18.785 8.656 18.634 7.861 19.525 7.638 18.352 6.546 17.871" fill="#ffac00"/>
      <polygon points="6.586 17.869 7.609 17.307 7.727 16.146 8.577 16.946 9.718 16.698 9.22 17.754 9.808 18.763 8.65 18.616 7.873 19.486 7.655 18.34 6.586 17.869" fill="#ffaf00"/>
      <polygon points="6.627 17.867 7.627 17.318 7.741 16.184 8.572 16.965 9.687 16.723 9.201 17.755 9.775 18.741 8.644 18.597 7.884 19.448 7.671 18.327 6.627 17.867" fill="#ffb100"/>
      <polygon points="6.667 17.866 7.644 17.329 7.756 16.221 8.568 16.984 9.657 16.748 9.182 17.756 9.743 18.719 8.637 18.578 7.895 19.409 7.687 18.315 6.667 17.866" fill="#ffb500"/>
      <polygon points="6.707 17.864 7.661 17.34 7.77 16.258 8.563 17.003 9.626 16.773 9.162 17.757 9.71 18.697 8.631 18.56 7.906 19.371 7.703 18.302 6.707 17.864" fill="#ffb700"/>
      <polygon points="6.748 17.862 7.678 17.351 7.785 16.296 8.558 17.022 9.595 16.798 9.143 17.758 9.677 18.675 8.624 18.541 7.917 19.332 7.719 18.29 6.748 17.862" fill="#ffba00"/>
      <polygon points="6.788 17.86 7.695 17.362 7.799 16.333 8.553 17.042 9.564 16.822 9.123 17.758 9.644 18.653 8.618 18.522 7.929 19.294 7.735 18.277 6.788 17.86" fill="#ffbd00"/>
      <polygon points="6.829 17.859 7.712 17.373 7.814 16.37 8.548 17.061 9.534 16.847 9.104 17.759 9.612 18.63 8.611 18.504 7.94 19.256 7.751 18.265 6.829 17.859" fill="#ffc000"/>
      <polygon points="6.869 17.857 7.73 17.384 7.828 16.408 8.544 17.08 9.503 16.872 9.085 17.76 9.579 18.608 8.605 18.485 7.951 19.217 7.768 18.253 6.869 17.857" fill="#ffc200"/>
      <polygon points="6.909 17.855 7.747 17.395 7.843 16.445 8.539 17.099 9.472 16.897 9.065 17.761 9.546 18.586 8.599 18.466 7.962 19.179 7.784 18.24 6.909 17.855" fill="#ffc600"/>
      <polygon points="6.95 17.853 7.764 17.406 7.857 16.482 8.534 17.118 9.442 16.922 9.046 17.762 9.514 18.564 8.592 18.447 7.973 19.14 7.8 18.228 6.95 17.853" fill="#ffc800"/>
      <polygon points="6.99 17.852 7.781 17.417 7.872 16.52 8.529 17.138 9.411 16.946 9.026 17.763 9.481 18.542 8.586 18.429 7.985 19.102 7.816 18.215 6.99 17.852" fill="#ffcb00"/>
      <polygon points="7.031 17.85 7.798 17.428 7.886 16.557 8.524 17.157 9.38 16.971 9.007 17.764 9.448 18.52 8.579 18.41 7.996 19.063 7.832 18.203 7.031 17.85" fill="#ffce00"/>
      <polygon points="7.071 17.848 7.816 17.439 7.901 16.594 8.52 17.176 9.35 16.996 8.988 17.764 9.415 18.498 8.573 18.391 8.007 19.025 7.848 18.19 7.071 17.848" fill="#ffd100"/>
      <polygon points="7.111 17.846 7.833 17.45 7.915 16.632 8.515 17.195 9.319 17.021 8.968 17.765 9.383 18.476 8.566 18.373 8.018 18.986 7.864 18.178 7.111 17.846" fill="#ffd300"/>
      <polygon points="7.152 17.845 7.85 17.461 7.93 16.669 8.51 17.214 9.288 17.046 8.949 17.766 9.35 18.454 8.56 18.354 8.029 18.948 7.881 18.166 7.152 17.845" fill="gold"/>
      <polygon points="7.192 17.843 7.867 17.472 7.944 16.706 8.505 17.234 9.258 17.071 8.93 17.767 9.317 18.432 8.553 18.335 8.041 18.909 7.897 18.153 7.192 17.843" fill="#ffda00"/>
      <polygon points="7.233 17.841 7.884 17.483 7.959 16.744 8.501 17.253 9.227 17.095 8.91 17.768 9.284 18.41 8.547 18.316 8.052 18.871 7.913 18.141 7.233 17.841" fill="#ffdc00"/>
      <polygon points="7.273 17.839 7.901 17.494 7.973 16.781 8.496 17.272 9.196 17.12 8.891 17.769 9.252 18.388 8.541 18.298 8.063 18.832 7.929 18.128 7.273 17.839" fill="#ffe000"/>
      <polygon points="7.313 17.837 7.919 17.505 7.988 16.818 8.491 17.291 9.166 17.145 8.871 17.769 9.219 18.366 8.534 18.279 8.074 18.794 7.945 18.116 7.313 17.837" fill="#ffe200"/>
      <polygon points="7.354 17.836 7.936 17.516 8.002 16.856 8.486 17.31 9.135 17.17 8.852 17.77 9.186 18.344 8.528 18.26 8.085 18.756 7.961 18.103 7.354 17.836" fill="#ffe500"/>
      <polygon points="7.394 17.834 7.953 17.527 8.017 16.893 8.481 17.33 9.104 17.195 8.833 17.771 9.154 18.322 8.521 18.242 8.097 18.717 7.978 18.091 7.394 17.834" fill="#ffe900"/>
      <polygon points="7.435 17.832 7.97 17.538 8.031 16.93 8.477 17.349 9.074 17.219 8.813 17.772 9.121 18.3 8.515 18.223 8.108 18.679 7.994 18.078 7.435 17.832" fill="#ffeb00"/>
    </g>
    <g>
      <polygon points="21.552 8.513 22.783 8.396 23.383 7.315 23.876 8.449 25.089 8.686 24.163 9.505 24.312 10.732 23.247 10.104 22.126 10.625 22.394 9.419 21.552 8.513" fill="#ff7e00"/>
      <polygon points="21.59 8.528 22.794 8.413 23.382 7.356 23.863 8.465 25.05 8.697 24.144 9.498 24.29 10.698 23.249 10.084 22.152 10.594 22.414 9.413 21.59 8.528" fill="#ff8100"/>
      <polygon points="21.629 8.543 22.806 8.43 23.38 7.396 23.851 8.481 25.012 8.708 24.126 9.491 24.269 10.665 23.25 10.064 22.178 10.563 22.434 9.408 21.629 8.543" fill="#ff8400"/>
      <polygon points="21.667 8.557 22.817 8.447 23.379 7.436 23.839 8.497 24.974 8.718 24.108 9.484 24.247 10.631 23.252 10.044 22.203 10.532 22.454 9.403 21.667 8.557" fill="#f80"/>
      <polygon points="21.705 8.572 22.829 8.464 23.377 7.477 23.827 8.513 24.935 8.729 24.089 9.477 24.226 10.598 23.253 10.024 22.229 10.5 22.474 9.398 21.705 8.572" fill="#ff8c00"/>
      <polygon points="21.743 8.586 22.841 8.481 23.376 7.517 23.815 8.529 24.897 8.74 24.071 9.47 24.204 10.564 23.255 10.004 22.255 10.469 22.494 9.393 21.743 8.586" fill="#ff9000"/>
      <polygon points="21.781 8.601 22.852 8.498 23.375 7.558 23.803 8.544 24.858 8.751 24.053 9.463 24.182 10.531 23.256 9.984 22.281 10.438 22.514 9.388 21.781 8.601" fill="#ff9300"/>
      <polygon points="21.82 8.615 22.864 8.515 23.373 7.598 23.791 8.56 24.82 8.762 24.034 9.456 24.161 10.497 23.258 9.964 22.307 10.407 22.534 9.383 21.82 8.615" fill="#ff9700"/>
      <polygon points="21.858 8.63 22.875 8.532 23.372 7.639 23.779 8.576 24.782 8.772 24.016 9.449 24.139 10.464 23.259 9.944 22.332 10.375 22.554 9.378 21.858 8.63" fill="#ff9b00"/>
      <polygon points="21.896 8.644 22.887 8.549 23.37 7.679 23.767 8.592 24.743 8.783 23.998 9.442 24.118 10.43 23.261 9.925 22.358 10.344 22.574 9.373 21.896 8.644" fill="#ff9e00"/>
      <polygon points="21.934 8.659 22.898 8.566 23.369 7.72 23.754 8.608 24.705 8.794 23.979 9.435 24.096 10.396 23.262 9.905 22.384 10.313 22.594 9.368 21.934 8.659" fill="#ffa200"/>
      <polygon points="21.973 8.673 22.91 8.583 23.367 7.76 23.742 8.624 24.666 8.805 23.961 9.428 24.075 10.363 23.264 9.885 22.41 10.282 22.614 9.362 21.973 8.673" fill="#ffa600"/>
      <polygon points="22.011 8.688 22.921 8.6 23.366 7.801 23.73 8.64 24.628 8.815 23.942 9.421 24.053 10.329 23.265 9.865 22.436 10.25 22.634 9.357 22.011 8.688" fill="#fa0"/>
      <polygon points="22.049 8.702 22.933 8.618 23.364 7.841 23.718 8.656 24.59 8.826 23.924 9.414 24.031 10.296 23.267 9.845 22.461 10.219 22.654 9.352 22.049 8.702" fill="#ffae00"/>
      <polygon points="22.087 8.717 22.945 8.635 23.363 7.882 23.706 8.672 24.551 8.837 23.906 9.407 24.01 10.262 23.268 9.825 22.487 10.188 22.674 9.347 22.087 8.717" fill="#ffb100"/>
      <polygon points="22.125 8.731 22.956 8.652 23.361 7.922 23.694 8.688 24.513 8.848 23.887 9.4 23.988 10.229 23.27 9.805 22.513 10.157 22.694 9.342 22.125 8.731" fill="#ffb500"/>
      <polygon points="22.164 8.746 22.968 8.669 23.36 7.963 23.682 8.704 24.474 8.859 23.869 9.393 23.967 10.195 23.271 9.785 22.539 10.125 22.714 9.337 22.164 8.746" fill="#ffb900"/>
      <polygon points="22.202 8.76 22.979 8.686 23.359 8.003 23.67 8.719 24.436 8.869 23.851 9.386 23.945 10.162 23.272 9.765 22.564 10.094 22.734 9.332 22.202 8.76" fill="#ffbc00"/>
      <polygon points="22.24 8.775 22.991 8.703 23.357 8.044 23.657 8.735 24.397 8.88 23.832 9.379 23.924 10.128 23.274 9.745 22.59 10.063 22.754 9.327 22.24 8.775" fill="#ffc000"/>
      <polygon points="22.278 8.789 23.002 8.72 23.356 8.084 23.645 8.751 24.359 8.891 23.814 9.373 23.902 10.094 23.275 9.725 22.616 10.032 22.774 9.322 22.278 8.789" fill="#ffc500"/>
      <polygon points="22.317 8.804 23.014 8.737 23.354 8.125 23.633 8.767 24.321 8.902 23.796 9.366 23.88 10.061 23.277 9.705 22.642 10 22.794 9.317 22.317 8.804" fill="#ffc800"/>
      <polygon points="22.355 8.818 23.025 8.754 23.353 8.165 23.621 8.783 24.282 8.912 23.777 9.359 23.859 10.027 23.278 9.685 22.668 9.969 22.814 9.312 22.355 8.818" fill="#fc0"/>
      <polygon points="22.393 8.833 23.037 8.771 23.351 8.206 23.609 8.799 24.244 8.923 23.759 9.352 23.837 9.994 23.28 9.665 22.693 9.938 22.834 9.306 22.393 8.833" fill="#ffd000"/>
      <polygon points="22.431 8.847 23.049 8.788 23.35 8.246 23.597 8.815 24.205 8.934 23.741 9.345 23.816 9.96 23.281 9.645 22.719 9.907 22.854 9.301 22.431 8.847" fill="#ffd300"/>
      <polygon points="22.469 8.862 23.06 8.805 23.348 8.287 23.585 8.831 24.167 8.945 23.722 9.338 23.794 9.927 23.283 9.625 22.745 9.875 22.874 9.296 22.469 8.862" fill="gold"/>
      <polygon points="22.508 8.876 23.072 8.822 23.347 8.327 23.573 8.847 24.129 8.956 23.704 9.331 23.772 9.893 23.284 9.605 22.771 9.844 22.894 9.291 22.508 8.876" fill="#ffdb00"/>
      <polygon points="22.546 8.891 23.083 8.839 23.345 8.368 23.56 8.863 24.09 8.966 23.686 9.324 23.751 9.86 23.286 9.585 22.797 9.813 22.914 9.286 22.546 8.891" fill="#ffe000"/>
      <polygon points="22.584 8.905 23.095 8.856 23.344 8.408 23.548 8.879 24.052 8.977 23.667 9.317 23.729 9.826 23.287 9.565 22.822 9.782 22.934 9.281 22.584 8.905" fill="#ffe400"/>
      <polygon points="22.622 8.92 23.106 8.874 23.343 8.449 23.536 8.895 24.013 8.988 23.649 9.31 23.708 9.792 23.289 9.546 22.848 9.751 22.954 9.276 22.622 8.92" fill="#ffe700"/>
      <polygon points="22.661 8.934 23.118 8.891 23.341 8.489 23.524 8.91 23.975 8.999 23.631 9.303 23.686 9.759 23.29 9.526 22.874 9.719 22.974 9.271 22.661 8.934" fill="#ffeb00"/>
    </g>
    <g>
      <polygon points="40.259 32.866 41.426 33.274 42.423 32.544 42.396 33.78 43.398 34.504 42.214 34.859 41.835 36.036 41.132 35.02 39.895 35.024 40.644 34.04 40.259 32.866" fill="#ff7e00"/>
      <polygon points="40.287 32.895 41.429 33.294 42.405 32.581 42.378 33.79 43.359 34.498 42.2 34.845 41.83 35.997 41.141 35.002 39.932 35.006 40.665 34.044 40.287 32.895" fill="#ff8100"/>
      <polygon points="40.316 32.924 41.432 33.315 42.387 32.617 42.36 33.799 43.319 34.491 42.186 34.831 41.824 35.957 41.151 34.985 39.968 34.989 40.685 34.048 40.316 32.924" fill="#ff8400"/>
      <polygon points="40.345 32.953 41.436 33.335 42.369 32.653 42.343 33.808 43.28 34.485 42.173 34.817 41.819 35.918 41.161 34.967 40.005 34.971 40.705 34.051 40.345 32.953" fill="#f80"/>
      <polygon points="40.373 32.982 41.439 33.355 42.35 32.689 42.325 33.818 43.24 34.479 42.159 34.803 41.813 35.878 41.17 34.95 40.041 34.953 40.725 34.055 40.373 32.982" fill="#ff8c00"/>
      <polygon points="40.402 33.012 41.442 33.376 42.332 32.725 42.307 33.827 43.201 34.472 42.145 34.789 41.808 35.839 41.18 34.932 40.078 34.936 40.746 34.059 40.402 33.012" fill="#ff9000"/>
      <polygon points="40.431 33.041 41.446 33.396 42.314 32.761 42.29 33.836 43.162 34.466 42.131 34.775 41.802 35.799 41.19 34.915 40.114 34.918 40.766 34.063 40.431 33.041" fill="#ff9300"/>
      <polygon points="40.459 33.07 41.449 33.416 42.295 32.797 42.272 33.846 43.122 34.46 42.118 34.761 41.797 35.76 41.2 34.897 40.151 34.901 40.786 34.066 40.459 33.07" fill="#ff9700"/>
      <polygon points="40.488 33.099 41.452 33.437 42.277 32.834 42.254 33.855 43.083 34.453 42.104 34.747 41.791 35.72 41.209 34.88 40.187 34.883 40.807 34.07 40.488 33.099" fill="#ff9b00"/>
      <polygon points="40.516 33.128 41.456 33.457 42.259 32.87 42.237 33.865 43.043 34.447 42.09 34.733 41.786 35.681 41.219 34.863 40.224 34.866 40.827 34.074 40.516 33.128" fill="#ff9e00"/>
      <polygon points="40.545 33.158 41.459 33.477 42.241 32.906 42.219 33.874 43.004 34.441 42.077 34.719 41.78 35.641 41.229 34.845 40.26 34.848 40.847 34.078 40.545 33.158" fill="#ffa200"/>
      <polygon points="40.574 33.187 41.462 33.498 42.222 32.942 42.201 33.883 42.965 34.434 42.063 34.705 41.775 35.602 41.238 34.828 40.297 34.83 40.867 34.081 40.574 33.187" fill="#ffa600"/>
      <polygon points="40.602 33.216 41.466 33.518 42.204 32.978 42.184 33.893 42.925 34.428 42.049 34.691 41.769 35.562 41.248 34.81 40.333 34.813 40.888 34.085 40.602 33.216" fill="#fa0"/>
      <polygon points="40.631 33.245 41.469 33.538 42.186 33.014 42.166 33.902 42.886 34.422 42.035 34.677 41.764 35.523 41.258 34.793 40.37 34.795 40.908 34.089 40.631 33.245" fill="#ffae00"/>
      <polygon points="40.66 33.274 41.472 33.559 42.168 33.05 42.148 33.911 42.846 34.416 42.022 34.663 41.758 35.483 41.268 34.775 40.406 34.778 40.928 34.093 40.66 33.274" fill="#ffb100"/>
      <polygon points="40.688 33.303 41.476 33.579 42.149 33.087 42.13 33.921 42.807 34.409 42.008 34.649 41.752 35.444 41.277 34.758 40.443 34.76 40.948 34.096 40.688 33.303" fill="#ffb500"/>
      <polygon points="40.717 33.333 41.479 33.599 42.131 33.123 42.113 33.93 42.768 34.403 41.994 34.635 41.747 35.404 41.287 34.74 40.479 34.743 40.969 34.1 40.717 33.333" fill="#ffb900"/>
      <polygon points="40.745 33.362 41.482 33.62 42.113 33.159 42.095 33.94 42.728 34.397 41.98 34.621 41.741 35.364 41.297 34.723 40.516 34.725 40.989 34.104 40.745 33.362" fill="#ffbc00"/>
      <polygon points="40.774 33.391 41.486 33.64 42.094 33.195 42.077 33.949 42.689 34.39 41.967 34.607 41.736 35.325 41.306 34.705 40.552 34.707 41.009 34.107 40.774 33.391" fill="#ffc000"/>
      <polygon points="40.803 33.42 41.489 33.66 42.076 33.231 42.06 33.958 42.649 34.384 41.953 34.593 41.73 35.285 41.316 34.688 40.589 34.69 41.029 34.111 40.803 33.42" fill="#ffc500"/>
      <polygon points="40.831 33.449 41.492 33.681 42.058 33.267 42.042 33.968 42.61 34.378 41.939 34.579 41.725 35.246 41.326 34.67 40.625 34.672 41.05 34.115 40.831 33.449" fill="#ffc800"/>
      <polygon points="40.86 33.479 41.496 33.701 42.04 33.304 42.024 33.977 42.571 34.371 41.925 34.565 41.719 35.206 41.336 34.653 40.662 34.655 41.07 34.119 40.86 33.479" fill="#fc0"/>
      <polygon points="40.889 33.508 41.499 33.722 42.021 33.34 42.007 33.986 42.531 34.365 41.912 34.551 41.714 35.167 41.345 34.635 40.698 34.637 41.09 34.122 40.889 33.508" fill="#ffd000"/>
      <polygon points="40.917 33.537 41.502 33.742 42.003 33.376 41.989 33.996 42.492 34.359 41.898 34.537 41.708 35.127 41.355 34.618 40.735 34.62 41.111 34.126 40.917 33.537" fill="#ffd300"/>
      <polygon points="40.946 33.566 41.506 33.762 41.985 33.412 41.971 34.005 42.453 34.352 41.884 34.523 41.703 35.088 41.365 34.6 40.771 34.602 41.131 34.13 40.946 33.566" fill="gold"/>
      <polygon points="40.974 33.595 41.509 33.783 41.967 33.448 41.954 34.015 42.413 34.346 41.87 34.509 41.697 35.048 41.374 34.583 40.808 34.584 41.151 34.134 40.974 33.595" fill="#ffdb00"/>
      <polygon points="41.003 33.625 41.513 33.803 41.948 33.484 41.936 34.024 42.374 34.34 41.857 34.495 41.692 35.009 41.384 34.565 40.844 34.567 41.171 34.137 41.003 33.625" fill="#ffe000"/>
      <polygon points="41.032 33.654 41.516 33.823 41.93 33.52 41.918 34.033 42.334 34.334 41.843 34.481 41.686 34.969 41.394 34.548 40.881 34.549 41.192 34.141 41.032 33.654" fill="#ffe400"/>
      <polygon points="41.06 33.683 41.519 33.844 41.912 33.557 41.901 34.043 42.295 34.327 41.829 34.467 41.68 34.93 41.404 34.53 40.917 34.532 41.212 34.145 41.06 33.683" fill="#ffe700"/>
      <polygon points="41.089 33.712 41.523 33.864 41.893 33.593 41.883 34.052 42.256 34.321 41.816 34.453 41.675 34.89 41.413 34.513 40.954 34.514 41.232 34.149 41.089 33.712" fill="#ffeb00"/>
    </g>
    <path d="M36.559,15.084c.905-3.771-9.936-7.13-10.184-11.016l.1-2.751C27.6,4.4,38.462,9.275,37.057,13.006Z" fill="url(#Безымянный_градиент_169)"/>
    <path d="M27.541,15.726c.905-3.771,8.366,2.075,9.07-.858l.5-2.078c-.7,2.933-8.164-2.912-9.07.859Z" fill="url(#Безымянный_градиент_169-2)"/>
    <path d="M30.347,24.1c.651-3.04-3.715-4.922-2.754-8.6l.5-2.077c-.7,2.933,3.658,4.824,2.753,8.595Z" fill="url(#Безымянный_градиент_169-3)"/>
    <path d="M20.849,31.462c.905-3.771,8.794-4.426,9.5-7.359l.5-2.078c-.71,2.547-9.6,1.742-10.507,5.714Z" fill="url(#Безымянный_градиент_178)"/>
    <path d="M24.319,33.014a13.063,13.063,0,0,0-3.218.773l.009.007c.389.291.635.481.754.572.163.124.4.3.71.506a15.11,15.11,0,0,1,3.3-.055,17.406,17.406,0,0,1,1.748.266,15.611,15.611,0,0,1,9.208,6c.177-.79.354-1.571.53-2.351A15.523,15.523,0,0,0,24.319,33.014Z" fill="url(#Безымянный_градиент_288)"/>
    <path d="M12.793,15.973c-.856-3.126,6.874-4.878,6.219-7.269L17.92,5.651c.655,2.39-6.756,5.216-5.9,8.342Z" fill="url(#Безымянный_градиент_288-2)"/>
    <path d="M20.356,20.073c-.856-3.126-7.394-2.132-8.049-4.522l-.379-2.088c.654,2.391,7.193,1.4,8.049,4.523Z" fill="url(#Безымянный_градиент_288-3)"/>
    <path d="M16.816,27.151c-.919-3.109,4.363-5.471,3.66-7.848l-.754-1.981c.7,2.377-4.58,4.74-3.661,7.848Z" fill="url(#Безымянный_градиент_288-4)"/>
    <path d="M26,25.5a3.1,3.1,0,0,1-1.78-.724,3.07,3.07,0,0,1-.866-1.237q.556-.939,1.112-1.88a2.961,2.961,0,0,0,1.188,1.386,2.84,2.84,0,0,0,.977.358Z" fill="url(#Безымянный_градиент_288-5)"/>
    <path d="M23.742,18.331a2.627,2.627,0,0,1-2.177.841V17.491A3.324,3.324,0,0,0,23.42,17Z" fill="url(#Безымянный_градиент_288-6)"/>
    <path d="M39.839,6.331a3.617,3.617,0,0,1-1.491.972,3.467,3.467,0,0,1-.784.165V5.522a4.346,4.346,0,0,0,.714-.229,4.44,4.44,0,0,0,1.166-.717Z" fill="url(#Безымянный_градиент_288-7)"/>
    <path d="M8.005,7.231a2.626,2.626,0,0,0,1.7,1.594l.628-1.56a3.312,3.312,0,0,1-.621-.3A3.386,3.386,0,0,1,8.8,6.112Z" fill="url(#Безымянный_градиент_288-8)"/>
    <path d="M35.254,30.023A3.631,3.631,0,0,1,33.763,31a3.478,3.478,0,0,1-.784.165V29.214a4.4,4.4,0,0,0,1.879-.946Z" fill="url(#Безымянный_градиент_288-9)"/>
    <path d="M42.277,17.741A4.568,4.568,0,0,1,40.1,16.563l.618-1.755a2.921,2.921,0,0,0,1.888,1.418Z" fill="url(#Безымянный_градиент_288-10)"/>
  </g>
</svg>