<svg height="711.284" viewBox="0 0 680.332 711.284" width="680.332" xmlns="http://www.w3.org/2000/svg"><path d="m127.173 335.968c-9.773 44.432-25.38 73.285-37.673 91.271-22.785 33.32-38.047 51.175-38.047 51.175-7.209 8.432-15.069 16.936-23.7 30.837-7.929 12.771-30.825 50.949-21.825 100.949 21.434 16.489 75.579-23.922 111.986-34.241 45.014-12.759 54.171-117.201 9.259-239.991z" fill="#b14317"/><path d="m672.406 586.719q-27.3-.048-54.593.114-15.683.073-31.347.2c-1.64 1.85-7.9-.612-9.538 1.173-53.83 58.587-104.147 83.01-134 94-79.706 29.318-177.479 34.467-184.849 13.25-1.266-3.62-2.094-14.107 3.961-20.421a23.98 23.98 0 0 1 -8.3-2.484 14.929 14.929 0 0 1 -5.39-4.724c-5.86-8.6-.162-21.607 7.094-28.214a29.176 29.176 0 0 1 0-13.165c3.247-13.231 16.233-20.779 34.853-26.363 12.451-3.75 27.419-6.607 43.652-9.692-24.821.244-53.262.487-79.739.65-9.821.065-19.383.113-28.392.146.008-2.674-9.9.017-15.9.017-38-4-69-1-88-2-3.644-3.09-21 2-20-5 19-26 30.4-55.007 25-56 8-38-24.149-218.877 58.116-409.8 5.492-12.729 10.466-23.159 14.036-30.406a.465.465 0 0 0 .065-.13c17.386-35.909 46.1-89.2 61.671-84.755 11.2 3.214 12.045 35.308 10.7 64.236.682-.211 1.364-.422 2.045-.617 74.333-22.516 114.235-23.214 133.829-21.623 7.646.633 23.3 2.029 24.691 8.23 1.753 7.76-19.691 18.571-25.519 21.412q82.3-4.139 83.164 2.468.46 3.479-21.416 9.879a347.489 347.489 0 0 1 70.032 23.944 287.252 287.252 0 0 1 64.186 41.1c11.738 10 43.117 36.688 37.062 49.415-4.14 8.669-24.334 8.1-44.139 5.211.016.146.049.292.065.455 3.863 25.145 11.607 64.349 28.425 100.55 22.742 48.976 52.288 82.758 45.291 89.755-2.354 2.354-9.367 2.175-31.184-11.348-1.348-.828-2.76-1.72-4.221-2.662 1.672 2.63 3.458 5.536 5.308 8.685v.016a279.238 279.238 0 0 1 35.86 103.294c4.709 34.533 1.284 69.208-2.579 91.204z" fill="#f9c898"/><path d="m160.411 192.716c-4.2-.644-18.386 43.513-25.14 93.523-5.756 42.615-5.145 82.308-8.549 141.2-.111 1.924-.358 6.141-.484 11.924a316.557 316.557 0 0 0 2.8 49.86c1.889 20.974.889 20.974-4.111 48.974-8 15-22 36-22 49 193 15 306 2 348.259-32.271 20.886-19.114 45.095-48.1 63.594-92.131-11.258 7.553-120.151 78.085-235.015 31.648-16.726-6.762-69.663-29.011-102.306-83.723-56.373-94.487-11.231-217.113-17.048-218.004z" fill="#e6790d" opacity=".56"/><path d="m8.928 630.2c-1.242 0-3.637-9.621-3.976-10.877a134.417 134.417 0 0 1 -3.813-53.319c4.949-36.573 24.188-59.663 46.465-86.4 7.986-9.584 16.242-19.494 24.234-30.566 25.175-34.878 43.655-76.23 54.925-122.905a2.818 2.818 0 1 1 5.479 1.324c-11.444 47.389-30.229 89.4-55.835 124.881-8.1 11.23-16.426 21.216-24.473 30.874-21.72 26.068-40.478 48.581-45.21 83.548a128.844 128.844 0 0 0 3.668 51.092c.406 1.5 2.038 5.941.536 6.347-.247.068-1.757 6.001-2 6.001z" fill="#623310"/><path d="m672.406 586.72q-27.3-.05-54.593.113-15.683.073-31.347.2c-1.64 1.851-9.059 1.461-11.153-.6 36.136-51.135 43.831-93.228 44.221-122.124.015-1.2.015-2.4 0-3.571v-.017a151.554 151.554 0 0 0 -2.89-28.652c-4.627-23.7-14.3-46.135-25.341-81.118-2.565-8.1-5.194-16.867-7.857-26.477-1.932-8.928-3.961-18.62-6.022-29.3-1.039-5.373-2.078-10.99-3.133-16.9a623.384 623.384 0 0 1 -8.815-77.9q15.024 3.433 30.032 6.867a450.194 450.194 0 0 0 12.84 58.732 304.443 304.443 0 0 0 15.585 41.818c5.681 12.256 11.8 23.555 17.662 33.717 17.581 30.486 32.872 50.794 27.629 56.038-2.354 2.354-9.367 2.175-31.184-11.348-1.348-.827-2.76-1.72-4.221-2.662 1.672 2.63 3.458 5.536 5.308 8.685a284.232 284.232 0 0 1 18.052 36.607 277.639 277.639 0 0 1 17.808 66.7c.39 2.824.714 5.633.99 8.457 3.15 31.648-.016 62.54-3.571 82.735z" fill="#e6790d"/><path d="m336.584 332.773c3.106-4.129 17.819 7.691 35.921 1.106 10.28-3.74 13.216-10.345 16.579-8.843 7.77 3.47 5.585 44.733-10.5 50.29-18.253 6.305-46.971-35.943-42-42.553z" fill="#e6790d" opacity=".56"/><path d="m408.979 220.037c-11.373 25.518-4.159 58.589 19.342 77.921 25.4 20.891 62.495 19.713 85.657 0 31.042-26.42 30.15-80.253-2.21-105-33.238-25.418-86.298-9.923-102.789 27.079z" fill="#e6790d"/><path d="m230.48 162.011c-36.211 12.158-54.375 57.63-38.132 87.868 12.036 22.405 40.121 31.16 62.448 28.184 32.619-4.349 64.211-35.242 59.131-69.079-5.268-35.09-47.811-58.938-83.447-46.973z" fill="#e6790d"/><circle cx="261.728" cy="207.086" fill="#fff" r="51.322"/><circle cx="462.212" cy="225.106" fill="#fff" r="55.711"/><path d="m223.606 172.73c-2.065 3.091-9.867 15.539-7.218 31.764 3.2 19.613 19.15 29.288 22.8 31.5 18.421 11.175 37.449 6.257 41.861 4.974 21.759-6.328 31.464-24.115 33.158-27.355-.613 4.065-3.873 22.727-20.723 35.23-16.093 11.94-37.045 12.676-53.467 5.388-5.123-2.274-23.572-11.4-29.428-32.744-7.337-26.723 11.928-47.616 13.017-48.757z" fill="#dcdcdc"/><path d="m408.979 220.037c5.655 27.99 32.754 46.656 60.651 42.069 27.5-4.521 47.1-30.21 44.116-58.2 1.362 2.658 11.382 23.045 1.476 44.934-9.81 21.676-31.287 27.431-35.645 28.6-21.094 5.653-47.788-.55-61.756-20.723-10.238-14.787-9.409-30.97-8.842-36.68z" fill="#dcdcdc"/><path d="m617.813 586.833q-15.683.073-31.347.2c-3.358-1.336-7.47-2.225-11.153-.6-4.5 1.985-6.328 6.827-6.69 7.678-3.991 9.389-51.018 54.182-114.052 82.4-78.524 35.156-184.949 45.965-196.492 18.943-2.761-6.463.29-14.191 3.961-20.421a23.98 23.98 0 0 1 -8.3-2.484l.779-.536c6.022.1 14.675.1 25.048-.357 43-1.867 232.528-16.509 297.2-145.533 19.124-38.165 21.591-74.885 22.386-88.489 2.289-39.772-5.454-65.745-15.714-113.163-2.9-13.409-6.022-28.555-9.155-46.2a623.384 623.384 0 0 1 -8.815-77.9c37.483 62.061 61.476 125.874 72.564 185.824.389 2.013.746 4.027 1.087 6.023v.016c12.864 75.024 5.38 143.626-21.307 194.599z" fill="#e6790d"/><path d="m538.334 111.046a.389.389 0 0 1 -.033.13c-8.019 23.458-64.95 36.331-85.112 40.892-22.711 5.13-37.24 4.968-52.5 17.127-16.591 13.23-23.376 32.548-26.526 46.979l-34.82-6.087c1.217-10.357 1.623-26.7-6.072-43.1-18-38.392-61.054-35.925-69.089-59.69-3.572-10.6.194-25.292 9.366-40.568 74.333-22.516 114.235-23.214 133.829-21.623 7.646.633 23.3 2.029 24.691 8.231 1.753 7.759-19.691 18.571-25.519 21.411q82.3-4.139 83.164 2.468.463 3.484-21.413 9.884a347.489 347.489 0 0 1 70.034 23.946z" fill="#fff" opacity=".66"/><path d="m526.339 592.082a2.818 2.818 0 0 1 -.025-5.636l145.753-1.346h.027a2.818 2.818 0 0 1 .026 5.636l-145.754 1.347z" fill="#623310"/><path d="m328.572 593.614c63.7-14.291 95.556-21.437 119.367-38.684 37.251-26.98 40.089-57.756 71.728-60.8 1.312-.126 24.574-2 42.114 13.824 18.889 17.046 18.805 43.5 18.789 48.631-.2 62.37-101.907 118.564-179.052 139.815-54.693 15.066-133.24 22.542-143.062-1-2.761-6.619.424-14.419 3.961-20.422-1.3-.342-11.07-3.075-14.981-12.337-3.76-8.9-.539-20.132 8.289-26.941a21.14 21.14 0 0 1 .1-9.309c4.919-19.816 40.175-25.471 72.747-32.777z" fill="#b14317"/><path d="m641.6 341.5c-15.211 6.51-32.857 11.2-50.292 9.448a65.509 65.509 0 0 1 -19.3-4.9c-16-6.834-34.025-22.3-31.427-32.678 2.224-8.9 18.181-8.182 36.85-18.2a78.264 78.264 0 0 0 8.263-5.081 84.648 84.648 0 0 0 22.661-24.123 304.443 304.443 0 0 0 15.585 41.818c5.674 12.252 11.795 23.551 17.66 33.716z" fill="#733712"/><path d="m675.977 503.977a72.015 72.015 0 0 1 -31.931-13.295 85.05 85.05 0 0 1 -24.512-29.95v-.017c-5.8-11.915-7.387-23.2-2.89-28.652 5.811-7.094 18.7-.584 40.535-3.246a277.639 277.639 0 0 1 17.808 66.7c.39 2.827.713 5.636.99 8.46z" fill="#733712"/><path d="m231.585 138.248c-4.067-9.948 36.865-48.948 69.079-38.684 15.2 4.844 28.557 20.69 25.421 28.737-1.887 4.84-9.32 5.781-32.6 7.736-40.485 3.399-60.742 5.04-61.9 2.211z" fill="#b14317"/><path d="m438.268 116.7c-14.185 2.214-29.109 12.161-28.184 19.342.692 5.372 10.031 7.485 43.105 16.031 49.026 12.669 52.367 14.193 53.6 12.153 4.803-7.913-31.789-53.262-68.521-47.526z" fill="#b14317"/><path d="m580.573 556.59c-2.8 75.121-134.027 122.987-157.688 131.619a337.287 337.287 0 0 1 -48.995 13.556 304.5 304.5 0 0 1 -72.663 5.05c-33.761-1.625-39.634-7.5-41.712-11.968-2.988-6.427-.119-14.222 2.9-19.866-.761 2.976-1.464 7.871 1.038 12.038a16.365 16.365 0 0 0 8.923 6.247c67.509 21.094 159.137-27.961 159.137-27.961 71.887-38.485 117.357-94.751 144.093-136.912a70.517 70.517 0 0 1 4.967 28.197z" fill="#733712"/><path d="m589.258 350.7a64.422 64.422 0 0 1 -17.258-4.658c-16.006-6.834-34.026-22.3-31.428-32.678 2.224-8.9 18.181-8.182 36.85-18.2.048.293.113.569.162.861.146.747.292 1.477.438 2.207.228 1.137.439 2.257.666 3.377.195.974.389 1.948.584 2.906.2.99.39 1.964.585 2.938.178.828.34 1.64.5 2.451.162.731.308 1.461.455 2.176.292 1.428.6 2.84.892 4.237.13.6.244 1.2.374 1.8.178.812.341 1.608.519 2.4.276 1.331.568 2.646.844 3.945 2.067 9.519 4.031 18.171 5.817 26.238z" fill="#b14317"/><path d="m339.344 210.087 34.82 6.087c11.806-34.921 14.622-62.708 14.92-81.8.243-15.47-1.193-23.656-5.25-25.006-6.95-2.313-18.868 16.347-22.105 21.414-9.278 14.532-21.184 39.706-22.385 79.305z" fill="#b14317"/><g fill="#623310"><path d="m672.516 588.088a2.872 2.872 0 0 1 -.534-.051 2.817 2.817 0 0 1 -2.237-3.3 274.28 274.28 0 0 0 2.446-88.842 278.185 278.185 0 0 0 -40.756-110.853 2.818 2.818 0 0 1 3.9-3.884c27.868 17.878 31.742 14.531 31.892 14.378 2.332-2.332-7.417-18.324-15.25-31.174-9.116-14.954-20.461-33.564-30.6-55.4a359.982 359.982 0 0 1 -29.892-101.984 2.818 2.818 0 0 1 5.582-.779 354.319 354.319 0 0 0 29.422 100.389c10.006 21.546 21.259 40.007 30.3 54.839 12.824 21.038 19.889 32.626 14.424 38.093-2.976 2.973-8.884 4.162-28.95-7.5a283.6 283.6 0 0 1 35.512 103.112 279.872 279.872 0 0 1 -2.495 90.668 2.819 2.819 0 0 1 -2.764 2.288z"/><path d="m262.044 677.84a2.905 2.905 0 0 1 -.321-.018c-4.034-.458-11.436-2.16-15.7-8.418-6.5-9.54-1.15-23.972 7.534-31.873 11.006-10.012 25.631-7.373 28.449-6.738a2.817 2.817 0 1 1 -1.231 5.5c-1.437-.32-14.291-2.9-23.426 5.409-6.051 5.5-11.736 17.093-6.669 24.531 3.11 4.564 9.2 5.71 11.678 5.991a2.818 2.818 0 0 1 -.314 5.618z"/><path d="m374.256 219.4a2.772 2.772 0 0 1 -.565-.058l-36.23-7.411a2.816 2.816 0 0 1 -2.2-3.288c1.07-5.612 5.417-34.69-14.131-56.031a58.117 58.117 0 0 0 -24.362-15.707 2.817 2.817 0 1 1 1.827-5.33 64.534 64.534 0 0 1 26.69 17.231c19.1 20.854 17.373 48.239 15.964 58.147l30.7 6.281c1.821-9.9 6.744-25.956 20.037-39.776 24.8-25.781 59.095-23.748 65.717-23.084a2.819 2.819 0 0 1 -.566 5.609c-6.169-.628-38.1-2.518-61.089 21.383-13.617 14.155-17.751 30.9-19 39.616a2.817 2.817 0 0 1 -2.789 2.418z"/><path d="m367.672 291.041a2.815 2.815 0 0 1 -2.443-1.409 108.032 108.032 0 0 1 -10.145-23.674 111.638 111.638 0 0 1 -1.928-53.694 2.818 2.818 0 0 1 5.52 1.14 105.965 105.965 0 0 0 1.817 50.972 102.362 102.362 0 0 0 9.616 22.438 2.818 2.818 0 0 1 -2.437 4.227z"/><path d="m348.731 293.512a2.822 2.822 0 0 1 -2.656-3.762l9.058-25.526a2.818 2.818 0 1 1 5.311 1.885l-9.058 25.526a2.819 2.819 0 0 1 -2.655 1.877z"/></g><path d="m428.6 299.394a2.807 2.807 0 0 1 -1.845-.689c-8.433-7.313-23.072-23.187-26.366-47.34a72.872 72.872 0 0 1 1.944-29.017 2.818 2.818 0 0 1 5.441 1.47 67.288 67.288 0 0 0 -1.8 26.785c3.045 22.321 16.642 37.05 24.476 43.845a2.818 2.818 0 0 1 -1.848 4.946z" fill="#9f5517"/><circle cx="446.408" cy="216.586" r="11.013"/><path d="m242.275 282.276a2.818 2.818 0 0 1 -.114-5.633c10.36-.428 30.173-3.468 46.47-19.023a67.273 67.273 0 0 0 15.289-22.067 2.818 2.818 0 0 1 5.171 2.243 72.889 72.889 0 0 1 -16.569 23.9c-17.633 16.83-38.976 20.116-50.128 20.577z" fill="#9f5517"/><circle cx="276.926" cy="203.775" r="10.268"/><path d="m103.928 593.2a3.964 3.964 0 0 1 -3-2c-.934-2.073.033-3.993 2-4 33.128-.125 194.961.715 236.659.25h.042a2.733 2.733 0 0 1 2.511 1.511 2.84 2.84 0 0 1 -2.49 4.124c-41.712.465-76.576.739-109.718.866z" fill="#623310"/><path d="m230.826 138.539c1.032 2.41 4.3 1.87 66.853-4.294 22.533-2.221 30.524-2.98 32-7.6 2.46-7.716-14.128-23.4-32.053-27.079-33.978-6.966-70.794 29.643-66.8 38.973z" fill="#b14317"/><path d="m235.179 142.705c-3.641 0-5.892-.6-6.943-3.056-2-4.669 2.052-11.126 5.8-15.721 10.882-13.341 37.923-32.5 64.154-27.124 14.694 3.011 27.634 13.191 32.35 21.24 2.049 3.5 2.679 6.766 1.821 9.454-2.028 6.362-9.439 7.092-34 9.51l-14.185 1.4c-24.327 2.405-37.728 3.73-44.776 4.135-1.572.092-2.977.162-4.221.162zm-1.762-5.274-2.591 1.109 2.592-1.106zm-.071-.445c3.224.463 16.976-.892 50.28-4.185l14.187-1.4c18.233-1.8 28.277-2.786 29.18-5.613.347-1.092-.132-2.875-1.315-4.893-4.157-7.1-16-15.983-28.619-18.57-23.8-4.87-48.608 12.846-58.656 25.166-4.233 5.187-5.077 8.297-5.057 9.495z" fill="#61320f"/><path d="m504.937 164.1c-1.409 2.211-4.549 1.148-65.273-15.072-21.875-5.843-29.638-7.887-30.343-12.688-1.177-8.012 17.734-20.8 36.017-21.526 34.656-1.366 65.052 40.725 59.599 49.286z" fill="#b14317"/><path d="m502.83 167.782a35.215 35.215 0 0 1 -7.008-1.121c-6.892-1.543-19.9-5.022-43.527-11.34l-13.765-3.68c-23.834-6.366-31.026-8.288-32-14.891-.411-2.793.741-5.917 3.329-9.036 5.959-7.178 20.378-15.127 35.365-15.716 26.732-1.048 50.334 22.235 58.91 37.163 2.954 5.141 5.9 12.17 3.175 16.451a4.768 4.768 0 0 1 -4.479 2.17zm-.27-5.2 2.378 1.511zm-55.541-44.982c-.523 0-1.043.01-1.57.031-12.871.507-26 7.355-31.249 13.685-1.5 1.8-2.257 3.483-2.091 4.616.431 2.935 10.18 5.539 27.875 10.265l13.767 3.681c32.338 8.649 45.689 12.22 48.951 12.283.213-1.179-.114-4.384-3.451-10.19-7.751-13.488-28.602-34.371-52.232-34.371z" fill="#61320f"/><ellipse cx="235.08" cy="317.827" fill="#fff" rx="26.155" ry="19.88"/><ellipse cx="499.279" cy="340.471" fill="#fff" rx="26.155" ry="19.88"/><path d="m464.2 282.832a62.939 62.939 0 0 1 -33.63-10.025c-14.006-8.931-23.9-22.6-27.157-37.5-5.986-27.436 12.608-48.911 13.4-49.813 16.249-18.431 42.842-24.841 66.177-15.955 26.766 10.2 43.25 38.425 38.342 65.666-4.066 22.573-22.139 41.18-44.973 46.3a55.494 55.494 0 0 1 -12.159 1.327zm-55.283-48.732c2.935 13.45 11.93 25.826 24.68 33.956 12.729 8.117 27.865 11.016 41.529 7.949 20.65-4.633 36.99-21.433 40.66-41.8 4.435-24.618-10.527-50.154-34.8-59.4-20.819-7.933-45.469-2-59.944 14.416-.718.814-17.509 20.2-12.123 44.882z"/><path d="m263.106 261.64a61.505 61.505 0 0 1 -6.526-.345c-15.426-1.632-29.482-9.048-38.562-20.344-13.715-17.064-16.083-41.217-5.892-60.1 12.3-22.788 40.819-33.823 66.341-25.673 22.251 7.108 37.963 27.309 39.1 50.266.056 1.121 1.129 27.681-19.251 44.258-9.507 7.729-22.067 11.938-35.21 11.938zm-1.917-103.513c-18.122 0-35.529 9.508-44.1 25.4-9.129 16.916-6.989 38.574 5.325 53.895 8.147 10.135 20.817 16.8 34.762 18.271 13.97 1.475 27.67-2.3 37.587-10.365 18.191-14.8 17.228-38.6 17.178-39.607-1-20.3-15.474-38.878-35.185-45.175a51.127 51.127 0 0 0 -15.567-2.419z"/><path d="m104.928 578.2c-.313 0-1.395 3.5 0-3 0-6 9-16 14-29 6-14 6-21 8-33 1-10-.577-21.781-1.266-30.967-9.654-128.8 7.307-246.616 50.44-350.289 9.34-22.448 24.8-56.133 40.2-83.352 26.663-47.147 38.606-50.072 45.275-48.187 10.314 2.935 14.439 23.013 12.915 63.088 55.645-16.716 100.42-23.847 133.108-21.193 13.162 1.07 25.568 3.074 27.224 10.424 1.2 5.344-4.154 11.591-15.951 18.629 21.332-.927 38.012-1.222 49.7-.872 19.49.577 23.45 2.685 23.937 6.371.409 3.1-1.893 5.786-13.75 9.9 48.829 12.605 91.044 33.858 125.59 63.252 22.134 18.832 43.93 39.827 37.772 52.761-5.69 11.947-34.015 11.7-84.187-.718a2.818 2.818 0 0 1 1.355-5.471c43.886 10.869 73.675 12.312 77.744 3.767 3.4-7.146-8.823-22.638-36.335-46.046-36.114-30.728-80.82-52.4-132.876-64.417a2.948 2.948 0 0 1 -2.266-2.167 2.818 2.818 0 0 1 1.958-3.317c11.32-3.321 16.121-5.481 18.148-6.671-4.908-1.419-21.826-3.037-78.97-.161a2.817 2.817 0 0 1 -1.376-5.347c17.41-8.49 24.652-15.415 24.011-18.257-.363-1.614-3.728-4.545-22.181-6.046-32.263-2.624-78.878 5.029-134.811 22.119a2.819 2.819 0 0 1 -3.639-2.823c2.4-52.5-5.257-60.419-8.661-61.388s-13.948 1.545-38.829 45.541c-15.27 27-30.623 60.447-39.9 82.744-43.591 104.773-60.231 224.174-49.46 354.893.081 5.2 4.081 30.2-7.919 59.2-5 13-17.4 31.951-18 32-.079.008-.923-2-1-2z" fill="#9f5517"/><path d="m302.2 711.284a169.873 169.873 0 0 1 -21.574-1.043c-6.056-.913-20.236-3.051-25.106-13.607-2.919-6.328-2.315-16.454 4.486-23.56 5.2-5.436 12.706-6.39 18.074-6.221a2.818 2.818 0 1 1 -.17 5.633c-4.219-.132-10.064.547-13.833 4.484-5 5.23-5.508 12.818-3.44 17.3 3.6 7.8 15.673 9.619 20.83 10.4 10.443 1.577 66.873 3.826 132.672-15.192 56.2-16.242 132.37-52.571 176.112-133.4a268.517 268.517 0 0 0 25.849-69.766 2.818 2.818 0 1 1 5.5 1.219 274.193 274.193 0 0 1 -26.4 71.228c-19.532 36.093-46.943 66.558-81.471 90.547-28.21 19.6-61.193 34.937-98.032 45.586a421.209 421.209 0 0 1 -113.497 16.392z" fill="#623310"/><path d="m9.952 615.438c.281-31.217 25.434-58.469 51.589-61.418 14.744-1.662 37.421 3.538 42.525 18.525 2.3 6.739.367 13.49-1.451 17.822a25.567 25.567 0 0 1 10.739 23.263c-1.2 11.656-10.34 17.8-11.568 18.6 3.405 4.611 9.719 14.634 7.046 24.661-4.561 17.109-32.555 23.942-52.016 19.894-26.044-5.418-47.124-32.464-46.864-61.347z" fill="#b14317"/><path d="m32.915 569.575a56.251 56.251 0 0 0 78.473 77.92c-1.593 11.924-6.375 18.216-9.947 21.553-18.212 17.011-61.471 10-80.259-17.4-16.059-23.416-12.132-58.648 11.733-82.073z" fill="#733712"/><path d="m89.017 638.522a2.818 2.818 0 0 1 -.289-5.621 24.715 24.715 0 0 0 15.237-7.171c4.995-5.235 10.33-16.325 4.555-25.419-4.109-6.469-12.608-9.737-21.144-8.155a2.817 2.817 0 1 1 -1.033-5.539c10.782-2.012 21.6 2.28 26.935 10.673 6.719 10.58 2.452 24.272-5.235 32.331a30.376 30.376 0 0 1 -18.729 8.886c-.1.009-.198.015-.297.015z" fill="#623310"/><path d="m71.927 681.1a67.186 67.186 0 0 1 -47.856-21.032c-14.993-16.099-20.607-39.523-14.653-61.137 7.722-28.037 35.231-49.618 61.338-48.176 12.545.707 32.361 7.061 35.531 21.669 1.21 5.575-.238 11.81-4.191 18.027a2.818 2.818 0 0 1 -4.756-3.024c2.189-3.442 4.563-8.634 3.44-13.809-2.354-10.842-19.16-16.606-30.342-17.236-23.594-1.36-48.53 18.427-55.587 44.046-5.356 19.443-.119 41.344 13.343 55.794 16.923 18.166 46.389 24.63 64.342 14.1 3.542-2.075 15.073-9.674 14.768-20.339-.179-6.282-4.379-11.194-6.866-13.563a2.818 2.818 0 1 1 3.887-4.081c5.378 5.123 8.437 11.332 8.612 17.485.383 13.383-12.146 22.2-17.551 25.361a46.285 46.285 0 0 1 -23.459 5.915z" fill="#623310"/><path d="m255.45 642.432a2.82 2.82 0 0 1 -2.746-2.2 31.165 31.165 0 0 1 .015-14.473c5.876-23.674 38.45-29.446 79.691-36.754 35.725-6.331 76.218-13.506 108.441-34.108 43.789-28 72.477-82.524 85.266-162.06a2.818 2.818 0 1 1 5.564.894c-13.055 81.191-42.593 137.012-87.794 165.913-33.17 21.209-74.25 28.487-110.494 34.91-39.226 6.951-70.21 12.441-75.2 32.561a25.6 25.6 0 0 0 .014 11.876 2.818 2.818 0 0 1 -2.752 3.438z" fill="#623310"/><path d="m557.378 468.914c10.722 38.474-25.947 91.433-72.489 114.137-29.4 14.342-60.648 15.585-62.427 10.5-2.058-5.882 37.017-15.287 72.489-54.844 12.361-13.784 25.755-28.721 33.517-52.447 6.993-21.376 6-39.458 12.206-40.474 5.399-.886 13.493 11.604 16.704 23.128z" fill="#fff" opacity=".44"/></svg>