<svg xmlns="http://www.w3.org/2000/svg" viewBox="0 0 800 800" width="800" height="800"><g transform="translate(178.0 0.0) rotate(0.0 267.5 150.0) scale(0.9987119416080195 0.9972177624427847)"><svg width="535.69" height="300.837" viewBox="0 0 535.69 300.837"><path d="M496.9 150.837a100.958 100.958 0 0 0-14.133-5.728 19.373 19.373 0 0 0-14.313 1.839c-1.462.251-5.963 12.41-8.462-2.749.365-1.9-24-40-31.754-49.693a180.7 180.7 0 0 0-53.455-39.619c-80.237-38.673-161.811-1.912-180.17 8.454a183.9 183.9 0 0 0-50.858 42.27 194.383 194.383 0 0 0-39.367 77.678q-9.157-5.447-18.315-10.842-9.921-5.892-19.824-11.752c4.877-24.185 15.929-57.869 43.367-87.474 83.8-90.42 262.019-96.145 344.147-7.311 24.637 26.649 36.91 57.82 43.137 84.927z" fill="#3f3f3e"/><path d="m474.067 264.519-2.55-18.16a203.465 203.465 0 0 0-13.67-97.46 181.9 181.9 0 0 0-32.18-52.27 171.681 171.681 0 0 0-32.79-28.56c-.31-.2-.62-.41-.93-.61a168.164 168.164 0 0 0-20.64-11.3c-69.8-32.09-160.07-16.03-214.65 38.18-29.61 29.42-41.54 64.01-46.34 87.86a2.627 2.627 0 0 1-2.57 2.11 2.957 2.957 0 0 1-.52-.05 2.625 2.625 0 0 1-2.06-3.1c4.93-24.56 17.23-60.2 47.79-90.55 56.07-55.71 148.82-72.2 220.54-39.23.99.46 1.98.92 2.96 1.4a174.782 174.782 0 0 1 18.4 10.3c.32.2.65.42.97.64a176.36 176.36 0 0 1 31.8 27.24c.67.72 1.32 1.45 1.97 2.18a186.061 186.061 0 0 1 32.14 51.48 208.334 208.334 0 0 1 12.33 119.9z"/><path d="M88.675 169.286c10.262-38.633 32.154-91.163 82.435-125.763C244.53-7 336.179 9.817 336.144 9.268 336.1 8.624 209.993-12.253 130.167 54.6c-39.549 33.123-55 77.112-61.878 105.3z" fill="#696968"/><path d="M66.245 163.328a2.683 2.683 0 0 1-.509-.049 2.63 2.63 0 0 1-2.074-3.087c7.03-35.836 22.121-66.281 44.854-90.486C149.716 25.837 216.673-.2 287.5 0c68.188.213 129.386 24.155 167.9 65.685 21 22.638 35.817 51.076 44.052 84.522a2.63 2.63 0 1 1-5.107 1.258c-8.019-32.57-22.42-60.227-42.8-82.2C414.013 28.8 354.214 5.47 287.479 5.26c-69.423-.179-134.909 25.22-175.13 68.046C90.3 96.779 75.66 126.352 68.823 161.2a2.631 2.631 0 0 1-2.578 2.128z"/><path d="M129.1 267.94c-10.294 14.724-29.236 28.543-52.48 29.908-2.664.156-25.592 1.181-44.935-13.963-35.54-27.824-39.786-95.2-8.159-126.732 2.678-2.671 22.586-21.916 50.05-19.855a59.94 59.94 0 0 1 29 10.444C136.6 170.513 155.405 230.31 129.1 267.94z" fill="#3f3f3e"/><path d="M17.471 164.337c2.5-1.8 28.012-19.48 56.157-9.23 30.462 11.1 36.835 45.016 38.175 52.151.742 3.95 7.888 45.774-22.5 69.533-19.757 15.449-42.918 13.515-48.8 12.85 4.8 2.4 26.628 12.649 52.554 4.534 1.542-.483 27.192-8.945 40.847-34.468 19.867-37.135 4.534-92.055-31.328-111.965-10.507-5.833-29.152-12.2-50.08-6.609-19.519 5.215-30.98 18.148-35.025 23.204z" fill="#2e2e2d"/><path d="M72.383 300.837a67.51 67.51 0 0 1-3.876-.111c-2.716-.156-27.059-2.067-45.36-20.951C6.065 262.151-2.55 233.124.663 204.022c2.828-25.614 14.61-46.977 32.323-58.611a67.506 67.506 0 0 1 58.919-7.092c21.124 7.64 38.752 27.925 47.156 54.26 8.841 27.7 5.851 57.154-7.8 76.857-10.247 14.786-31.577 31.401-58.878 31.401zm-36.51-151.03c-16.4 10.77-27.327 30.742-29.982 54.792-3.046 27.585 5.013 54.988 21.033 71.517 16.913 17.451 39.378 19.215 41.884 19.359 25.255 1.46 47.391-13.539 58.128-29.033 12.744-18.392 15.47-46.081 7.115-72.264-7.911-24.791-24.335-43.824-43.934-50.913a62.157 62.157 0 0 0-54.244 6.542z"/><path d="M43.292 170.787c-3.324-1.157-7.412 2.707-11.256 6.341-14.906 14.089-12.812 36.439-11.922 42.741 1.8 12.715 8.744 31.24 15 30.677 12.244-1.105 20.886-75.339 8.178-79.759z" fill="#696968"/><path d="M531.255 234.1c-4.421 15.7-16.527 33.218-36.047 41.342-2.237.931-21.588 8.668-42.7 1.471C413.713 263.694 389.915 207.2 407.6 170.7c1.5-3.091 12.808-25.546 36.971-32a54.421 54.421 0 0 1 27.989.278c35.978 9.355 69.993 54.994 58.695 95.122z" fill="#3f3f3e"/><path d="M404.559 178.674c1.609-2.289 18.189-25.081 45.385-24.713 29.436.4 45.047 27.575 48.331 33.291 1.817 3.165 20.456 36.885 1.514 66.344-12.317 19.156-32.753 24.426-38 25.617 4.836.619 26.613 2.879 46.414-11.835 1.177-.875 20.637-15.8 24.709-41.77 5.924-37.781-23.652-80.279-60.354-86.621-10.754-1.858-28.643-1.74-44.914 9.315a61.688 61.688 0 0 0-23.085 30.372z" fill="#2e2e2d"/><path d="M535.407 212.179c-1.34-15.45-7.63-31.67-18.15-45.67a92.872 92.872 0 0 0-15.18-15.92c-12.65-10.39-27.26-16.33-41.48-16.49h-.63a61.349 61.349 0 0 0-47.77 23.71c-11.7 15.27-15.41 37.11-10.18 59.92 5.96 25.91 22.03 48.22 41.94 58.22a64.369 64.369 0 0 0 32.61 6.36 69.187 69.187 0 0 0 8.17-.98c2.3-.42 3.84-.83 4.38-.99 1.14-.33 2.26-.68 3.36-1.06 23.4-8.17 36.72-28.8 41.08-44.54a63.378 63.378 0 0 0 1.85-22.56zm-59.51 65.39a59.128 59.128 0 0 1-29.79-5.89c-18.68-9.38-33.79-30.46-39.43-55.02-4.92-21.42-1.52-41.81 9.31-55.95a56.411 56.411 0 0 1 44.55-21.83 54.74 54.74 0 0 1 20.69 4.5 66.881 66.881 0 0 1 8.98 4.61 77.531 77.531 0 0 1 11.47 8.54 90.588 90.588 0 0 1 27.35 45.75c2.51 10.84 2.58 21.61-.07 31.19-4.23 15.26-16.96 33.08-36.34 40.65a50.324 50.324 0 0 1-4.81 1.63 56.959 56.959 0 0 1-11.907 1.82z"/></svg></g><g transform="translate(87.0 82.0) rotate(0.0 305.0 355.5) scale(0.9979386840297091 0.9985183728784996)"><svg width="611.26" height="712.055" viewBox="0 0 611.26 712.055"><path d="M246.354 13.865a4.587 4.587 0 0 0-2.24.7 167.226 167.226 0 0 0-18.58 22.07c-.03.04-.06.09-.09.13a1.059 1.059 0 0 0-.12.1l-.02.02c-.06.05-.12.11-.18.17a1.811 1.811 0 0 0-.18.21.01.01 0 0 0-.01.01 136.818 136.818 0 0 0-11.04 17.31 184.946 184.946 0 0 0-8.01 26.13c-.83-.52-1.67-1.05-2.5-1.57-3.87 11.45-6.86 23.55-10.17 36.88-4.11 16.58-8.77 35.37-16.23 56.89q-4.305 12.45-9.47 24.31-3.285 7.56-6.9 14.86a136.829 136.829 0 0 1-20.28 41.27 1.768 1.768 0 0 1-.16.22c-2.23 3.14-4.59 6.19-7.05 9.22-13.3 16.36-29.67 31.75-48.07 52.87a468.748 468.748 0 0 0-15.36 18.52 331.723 331.723 0 0 0-33.37 51.46 302.967 302.967 0 0 0-22.99 56.9c-16 55.22-14.01 110.09 5.96 154.05a122.647 122.647 0 0 0 8.44 15.48c62.25 97.44 259.31 114.11 397.29 83.38 67.5-15.02 120.86-41.39 137.4-75.19 28.13-57.49-22.13-93.19-16.21-193.76 4.37-36.89 40.33-72.82 54.82-108.45 15.63-38.4 4.74-61.11-10.64-107.94-9.67-29.41-21.11-68.35-28.86-126.68q-.87-6.615-1.63-12.83c-4.89-39.8-6.69-66.09-16.92-67.82-2.7-.46-5.84.5-9.25 2.76-.02 0-.02 0-.03.01a45.175 45.175 0 0 0-7.83 6.83c-11.64 12.46-25.45 36.33-38.67 68.44-.26.63-.52 1.26-.78 1.9-.07.18-.15.38-.23.58q-10.23-1.89-21.3-3.47a481.022 481.022 0 0 0-117.85-2.05c-16.09 1.7-28.03 3.26-39.12 5.33a313.364 313.364 0 0 0-31.14 7.51c-12.04-15.26-18.03-40.1-23.71-60.47v-.01c-.01-.02-.01-.03-.02-.05-1.3-4.66-2.59-9.08-3.92-13.1-.33-.99-.66-1.95-1-2.89-.33-.08-.66-.16-.97-.24h-.81z" fill="#f9c898"/><path d="M203.384 79.145a158.086 158.086 0 0 1 10.51-24.56 184.946 184.946 0 0 0-8.01 26.13c-.83-.52-1.67-1.05-2.5-1.57z" fill="#e1e0e0"/><path d="M300.4 429.734c-99.906 35.457-203.808-9.25-264.08-44.094a332.674 332.674 0 0 1 33.37-51.453c24.682-31.379 46.53-50.608 63.438-71.4a257.632 257.632 0 0 0 70.782 54.072c89.811 46.166 178.2 21.069 184.529 44.591 4.89 18.223-42.303 52.055-88.039 68.284zM149.738 623.3c-45.238 8.205-87.043 1.144-122-11.223a121.56 121.56 0 0 1-8.438-15.484c-19.977-43.961-21.967-98.829-5.97-154.045A198.046 198.046 0 0 0 66.209 479.4c72.721 34.33 185.955 31.114 208.8 30.467 22.892-.646 35.027-2.121 37.811 3.946 8.335 18.115-71.348 92.825-163.082 109.487z" fill="#b14317"/><g fill="#e6790d"><path d="M546.215 426.5c-9.691 100.277 44.342 136.276 16.211 193.763-16.543 33.8-69.9 60.173-137.4 75.191 28.395-14.372 84.474-48.486 96.873-104.9 9.084-41.292-4.144-99.708-13.974-143.47-3.746-16.692-6.167-25.2-3.8-38.092 7.26-39.7 47.923-49.7 71.1-81.474 15.914-21.815 27.418-59.162 9.316-127.39 1.907 3.2 3.863 6.514 5.852 9.979 15.383 46.828 26.274 69.538 10.642 107.946-14.49 35.628-50.573 64.49-54.82 108.447zM249.124 206.905c-14.65 31.21-58.04 47.39-106.79 46.7q-1.08 0-2.16-.03h-.01c.06-.07.11-.14.17-.22 9.77-12.44 21.86-31.37 27.18-56.13q5.145-11.85 9.47-24.31c7.46-21.52 12.12-40.31 16.23-56.89 3.31-13.33 6.3-25.43 10.17-36.88a158.086 158.086 0 0 1 10.51-24.56 136.818 136.818 0 0 1 11.04-17.31.01.01 0 0 1 .01-.01 1.811 1.811 0 0 1 .18-.21c.06-.06.12-.12.18-.17l.02-.02a1.059 1.059 0 0 1 .12-.1c.03-.04.06-.09.09-.13a167.226 167.226 0 0 1 18.58-22.07 4.587 4.587 0 0 1 2.24-.7c.57 1.39 1.15 2.78 1.72 4.17l4.98 12.06c.01.02.01.03.02.05v.01c-.69.73-1.38 1.5-2.08 2.3-8.16 9.33-17.06 22.88-18.38 39.86-1.54 19.87 8.41 29.95 15.66 52.48 1.01 3.12 15.72 50.42.85 82.11zM524.649 64.272a171.641 171.641 0 0 1-10.162 23.7 182.85 182.85 0 0 1-28.064-5.255c16.56-40.695 34.131-68.527 47.276-77.164.017-.016.017-.016.033-.016a172.649 172.649 0 0 1-9.083 58.735z" opacity=".56"/></g><path d="M511.9 151.779a70.348 70.348 0 0 0-35.176 21.9c-26.522 30.684-14.14 69.357-13.543 71.114q-17.827 3.132-35.623 6.266c-.066-4.078-1.409-46.846-37.131-71.047-23.456-15.881-53.874-18.417-80.844-7.626a15.269 15.269 0 0 1-20.77-13.393c-1.26-21.749.066-53.1 14.571-75.871 11.089-2.072 23.024-3.63 39.12-5.338a480.975 480.975 0 0 1 117.842 2.056 283.112 283.112 0 0 1 58.632 46.4 15.35 15.35 0 0 1-7.078 25.539z" fill="#fff" opacity=".66"/><path d="M474.493 328.581c-2.981-1.7-7.612 7.432-18.622 8.465-13.331 1.25-21.43-10.746-24.548-8.465-5.466 4 9.834 47.876 25.394 46.556 14.849-1.26 23.727-43.153 17.776-46.556z" fill="#e6790d" opacity=".56"/><path d="M364.483 181.7c-29.306-7.963-54.312 10.341-58.627 13.634-5.621 4.29-22.554 17.214-25.677 38.857-3.973 27.539 16.4 55.411 41.416 65.3 33.541 13.254 81.22-3.545 90.607-41.436 8.263-33.355-16.887-67.976-47.719-76.355zM531.5 163.295c-22.741-1.432-38.757 14.271-41.584 17.043-14.494 14.21-24.543 38.743-15.679 62.716 9.174 24.812 36.039 42.075 64.08 36.812 28.835-5.411 46.781-32.364 46.355-58.626-.496-30.635-25.924-56.229-53.172-57.945z" fill="#e6790d"/><circle cx="351.889" cy="242.482" fill="#1d1d1c" r="49.193"/><circle cx="525.717" cy="223.577" fill="#1d1d1c" r="45.36"/><path d="M208.7 274.831c-14.271-12.249-105.226 42.831-143.9 133.741-9.251 21.748-46.829 110.087-1.693 152.363 30.806 28.854 93.062 29.62 116.629 1.837 28.997-34.172-23.707-84.272-8.175-179.972 11.039-68.031 46.908-99.587 37.139-107.969z" fill="#fff" opacity=".52"/><path d="M427.557 251.056c-3.759-16.583-21.036-95.7-.182-105.277a10.734 10.734 0 0 1 5.752-.879c22.485 2.979 28.833 82.79 30.053 99.89z" fill="#b14317"/><path d="M426.77 253.766a2.632 2.632 0 0 1-2.627-2.506c-1-21.314-8.918-41.343-22.308-56.4a2.63 2.63 0 0 1 3.93-3.495c13.57 15.259 21.839 35.3 23.452 56.718l29.979-4.769c-3.286-20.2-.869-40.171 6.882-56.525a2.63 2.63 0 1 1 4.753 2.252c-7.62 16.077-9.751 35.953-6 55.967a2.631 2.631 0 0 1-2.171 3.082l-35.477 5.643a2.621 2.621 0 0 1-.413.033z" fill="#623310"/><path d="M433.735 299.636a2.63 2.63 0 0 1-1.619-4.7 40.016 40.016 0 0 0 12.863-17.4 40.529 40.529 0 0 0 .7-26.067 2.63 2.63 0 0 1 5.024-1.556 45.825 45.825 0 0 1-.8 29.477 45.29 45.29 0 0 1-14.553 19.69 2.615 2.615 0 0 1-1.615.556z" fill="#623310"/><path d="M458.731 299.636a2.629 2.629 0 0 1-2.249-1.263l-11.288-18.546a2.63 2.63 0 0 1 4.492-2.735l11.288 18.547a2.63 2.63 0 0 1-2.243 4z" fill="#623310"/><path d="m361.755 283.661-24.73-62.321-4.194 26.124-31.052 4.516-.757-5.205 27.229-3.959 6.611-41.186 24.763 62.405 8.077-49.542 9.796 21.439 22.54-2.971.687 5.213-26.395 3.48-4.221-9.239zm173.739-23.018-22.468-56.586-3.692 23.034-28.375 4.132-.757-5.206 24.55-3.574 6.107-38.095 22.501 56.67 7.313-44.912 9.156 20.026 20.291-2.679.689 5.213-24.147 3.19-3.578-7.829z" fill="#fff"/><path d="M319.074 150.633c1.334 2.009 6.056-.982 25.994-5.8 35.493-8.572 50.173-6.253 52.1-13 1.914-6.7-9.793-18.667-22.6-21.43-28.616-6.172-59.406 34.34-55.494 40.23z" fill="#b14317"/><path d="M320.337 153.9a3.746 3.746 0 0 1-3.453-1.813c-1.845-2.776-.366-7.722 4.393-14.7 9.839-14.426 32.3-34.209 53.847-29.552 9.02 1.947 18.348 8.358 22.684 15.591 1.993 3.324 2.646 6.481 1.889 9.133-1.6 5.584-7.859 6.532-20.338 8.422-8.071 1.222-19.124 2.9-33.674 6.411-7.9 1.908-13.3 3.5-17.241 4.661-3.726 1.1-6.265 1.847-8.107 1.847zm48.12-41.509c-14.6 0-28.058 11.561-33.585 17.01-8.4 8.284-12.828 16.139-13.445 19.123 1.238-.25 3.339-.869 5.53-1.515 3.768-1.112 9.462-2.79 17.493-4.73 14.772-3.567 25.955-5.261 34.121-6.5 9.6-1.455 15.4-2.333 16.069-4.668.337-1.181-.153-3-1.343-4.984-3.077-5.132-10.688-11.3-19.283-13.154a26.321 26.321 0 0 0-5.557-.581z" fill="#61320f"/><path d="M532.876 135.848c-.856 2.412-6.2.29-39.5-.337-24.052-.454-32.037.449-34.38-4.24-2.794-5.59 3.691-16.6 12.3-21.327 23.204-12.751 64.083 18.856 61.58 25.904z" fill="#b14317"/><path d="M529.283 139.587c-1.771 0-4.051-.133-7.016-.308-5.931-.348-14.894-.874-28.944-1.139-4.182-.08-7.877-.117-11.14-.15-16.657-.171-22.89-.234-25.543-5.543-3.791-7.585 4.224-19.774 13.388-24.808 17.383-9.55 43.225 3.6 56.355 14.762 4.926 4.188 10.481 10.075 8.971 14.327-.79 2.226-2.226 2.859-6.071 2.859zm-45.312-30.044a23.407 23.407 0 0 0-11.41 2.7c-7.838 4.307-13.133 14.014-11.217 17.847 1.217 2.435 7.793 2.5 20.892 2.636 3.277.033 6.987.071 11.186.15 14.154.267 23.181.8 29.153 1.148 3.3.194 6.078.357 7.548.308-1.275-2.8-7.72-9.615-18.5-15.9-5.381-3.127-16.759-8.889-27.652-8.889z" fill="#61320f"/><path d="M350.985 296.507a52.625 52.625 0 1 1 52.4-58.412 52.621 52.621 0 0 1-46.514 58.087 53.788 53.788 0 0 1-5.886.325zm.195-99.994a47.976 47.976 0 0 0-5.3.295 47.36 47.36 0 1 0 52.281 41.864 47.373 47.373 0 0 0-46.981-42.159zm174.486 75.135a48.029 48.029 0 1 1 47.77-53.321 48.041 48.041 0 0 1-47.77 53.321zm.067-90.8a42.96 42.96 0 0 0-4.744.263 42.767 42.767 0 1 0 47.22 37.8 42.83 42.83 0 0 0-42.476-38.062z"/><path d="M603.474 319.055c-5.84 14.35-14.86 28.29-23.58 41.77-13.29 20.54-27.03 41.79-31.09 66.11l-.03.17c-6.35 27.32 2.4 58.34 10.87 88.34 10.25 36.32 20.85 73.87 5.15 105.98-13.13 26.83-50.07 50.75-104.04 67.36-48.98 15.08-108.17 23.27-167.59 23.27q-4.59 0-9.16-.07c-61.56-.87-117.97-10.53-163.14-27.91-52.03-20.04-87.01-49.1-103.95-86.39C.054 560.6-4.306 516.185 4.3 469.275c8.8-47.97 30.7-95.25 63.32-136.72q3.9-4.95 7.71-9.53a259.286 259.286 0 0 0 25.78-21.24c.06-.05.11-.11.17-.16-9.21 9.9-19.16 21.01-29.53 34.19-64.72 82.26-84.36 184.2-50.06 259.7 30.79 67.74 128.87 109.32 262.38 111.22 61.94.85 124.14-7.28 175.13-22.98 52.57-16.18 88.38-39.13 100.86-64.64 14.83-30.3 4.96-65.25-5.48-102.24-8.64-30.61-17.58-62.26-10.95-90.88 4.25-25.37 18.28-47.06 31.85-68.03 8.98-13.88 17.46-27 23.12-40.9 13.67-33.57 6.63-54.49-6.15-92.46-10.33-30.7-24.48-72.76-33.53-140.83-1.24-9.33-2.29-18.22-3.22-26.06-3.38-28.57-6.06-51.13-13.16-52.33-12.38-2.08-34.56 21.35-56.22 78.44a2.632 2.632 0 0 1-4.92-1.87c20.29-53.46 44.05-84.81 62.02-81.75 10.98 1.86 13.3 21.4 17.5 56.89.93 7.83 1.98 16.7 3.21 25.99 8.98 67.57 23.04 109.34 33.31 139.84 12.744 37.88 20.444 60.74 6.034 96.13zM150.8 230.445c-6.52 13.84-14.88 25.26-24.75 36.68a309.51 309.51 0 0 0 24.75-36.68z" fill="#623310"/><path d="M522.154 91.335a2.643 2.643 0 0 1-2.55 1.98 2.962 2.962 0 0 1-.65-.08A483.031 483.031 0 0 0 347.334 80.4c-31.83 3.38-46.84 6.13-69.82 12.76a2.638 2.638 0 0 1-2.79-.9c-11.21-14.21-17.23-36.11-22.53-55.44-.41-1.47-.81-2.93-1.2-4.36-1.1-3.94-2.18-7.73-3.28-11.26a1.325 1.325 0 0 0-2.22-.53c-27.7 28.82-38.4 58.06-43.05 81.19-.05.26-2.34 8.27-2.8 10.12q-.66 2.625-1.32 5.32c-4.14 16.68-8.84 35.6-16.37 57.34a336.136 336.136 0 0 1-26.13 57.52.219.219 0 0 1-.03.05q-6.345 11.04-13.46 21.4-7.08 10.32-14.89 19.91c-5.16 5.82-10.7 11.69-16.58 17.91q-4.245 4.5-8.76 9.31c-.57.57-13.46 15.98-18.66 20.12-.03.03-7.51 4.11-8 3-.64-1.46 6.66-8.82 7.71-10.02q5.775-6.6 11.24-12.52c.61-.61 22.37-22.4 31.66-34.19 9.65-11.17 24.95-36.98 25.27-37.59 2.05-3.57 8.19-15.24 9.29-17.45q3.6-7.29 6.9-14.86 5.145-11.85 9.47-24.31c7.46-21.52 12.12-40.31 16.23-56.89 3.31-13.33 6.3-25.43 10.17-36.88a158.086 158.086 0 0 1 10.51-24.56 136.818 136.818 0 0 1 11.04-17.31.01.01 0 0 1 .01-.01c.37-.51 10.33-14.29 17.5-21.41a8.3 8.3 0 0 1 1.67-1.29 4.587 4.587 0 0 1 2.24-.7.277.277 0 0 1 .09-.01c.2 0 .45 0 .71.01h.01c.07 0 .14.01.21.01a4.483 4.483 0 0 1 3.99 2.77c.03.07.06.15.08.21.96 3.16 4.13 12.41 5.82 18.57 4.91 17.86 10.43 37.99 19.98 51.42a1.335 1.335 0 0 0 1.46.5c21.87-6.19 37.11-8.89 68.07-12.18a485.332 485.332 0 0 1 140.43 5.66q16.56 3.075 33.05 7.31a2.634 2.634 0 0 1 1.9 3.195z" fill="#623310"/></svg></g><g transform="translate(178.0 134.0) rotate(5.773391649530151 74.5 86.0) scale(1.0341548733680828 1.0342878447125041)"><svg width="144.079" height="166.298" viewBox="0 0 144.079 166.298"><path d="M129.1 133.4c-10.294 14.724-29.236 28.544-52.48 29.909-2.664.156-25.592 1.181-44.935-13.963C-3.858 121.522-8.1 54.143 23.523 22.614 26.2 19.943 46.109.7 73.573 2.759a59.94 59.94 0 0 1 29 10.444C136.6 35.974 155.405 95.771 129.1 133.4z" fill="#3f3f3e"/><path d="M17.471 29.8c2.5-1.8 28.012-19.48 56.157-9.23 30.462 11.1 36.835 45.016 38.175 52.151.742 3.95 7.888 45.773-22.5 69.533C69.55 157.7 46.389 155.767 40.5 155.1c4.8 2.4 26.628 12.649 52.554 4.535 1.542-.483 27.192-8.945 40.847-34.468 19.869-37.134 4.536-92.054-31.326-111.967C92.068 7.369 73.423 1 52.5 6.594 32.977 11.809 21.516 24.742 17.471 29.8z" fill="#2e2e2d"/><path d="M72.383 166.3a67.51 67.51 0 0 1-3.876-.111c-2.716-.157-27.059-2.067-45.36-20.951C6.065 127.612-2.55 98.584.663 69.482c2.828-25.613 14.61-46.976 32.323-58.611A67.506 67.506 0 0 1 91.905 3.78c21.124 7.64 38.752 27.924 47.156 54.259 8.841 27.7 5.851 57.155-7.8 76.858-10.247 14.786-31.577 31.403-58.878 31.403zM35.873 15.268C19.475 26.038 8.546 46.009 5.891 70.06c-3.046 27.584 5.009 54.988 21.033 71.517 16.913 17.45 39.378 19.215 41.884 19.359C94.063 162.4 116.2 147.4 126.936 131.9c12.744-18.392 15.47-46.082 7.115-72.264-7.911-24.788-24.335-43.821-43.934-50.91a62.153 62.153 0 0 0-54.244 6.542z"/><path d="M43.292 36.247c-3.324-1.156-7.412 2.708-11.256 6.341-14.906 14.09-12.812 36.44-11.922 42.742 1.8 12.715 8.744 31.24 15 30.676C47.358 114.9 56 40.667 43.292 36.247z" fill="#696968"/></svg></g></svg>